<mxfile host="app.diagrams.net" agent="Mozilla/5.0 (Windows NT 10.0; Win64; x64) AppleWebKit/537.36 (KHTML, like Gecko) Chrome/135.0.0.0 Safari/537.36" version="26.2.12">
  <diagram name="Page-1" id="Rnn3JtMIuHS4fGXHSfS3">
    <mxGraphModel dx="1904" dy="1175" grid="1" gridSize="10" guides="1" tooltips="1" connect="1" arrows="1" fold="1" page="1" pageScale="1" pageWidth="827" pageHeight="1169" math="0" shadow="0">
      <root>
        <mxCell id="0" />
        <mxCell id="1" parent="0" />
        <mxCell id="sq_Sm_KLbccSPEKtcpqH-1" value="" style="strokeWidth=1;shadow=0;dashed=0;align=center;html=1;shape=mxgraph.mockup.containers.browserWindow;rSize=0;strokeColor=#666666;strokeColor2=#008cff;strokeColor3=#c4c4c4;mainText=,;recursiveResize=0;" parent="1" vertex="1">
          <mxGeometry x="40" y="110" width="1220" height="990" as="geometry" />
        </mxCell>
        <mxCell id="sq_Sm_KLbccSPEKtcpqH-2" value="Home" style="strokeWidth=1;shadow=0;dashed=0;align=center;html=1;shape=mxgraph.mockup.containers.anchor;fontSize=17;fontColor=#666666;align=left;whiteSpace=wrap;" parent="sq_Sm_KLbccSPEKtcpqH-1" vertex="1">
          <mxGeometry x="60" y="12" width="110" height="26" as="geometry" />
        </mxCell>
        <mxCell id="sq_Sm_KLbccSPEKtcpqH-3" value="https://www.draw.io" style="strokeWidth=1;shadow=0;dashed=0;align=center;html=1;shape=mxgraph.mockup.containers.anchor;rSize=0;fontSize=17;fontColor=#666666;align=left;" parent="sq_Sm_KLbccSPEKtcpqH-1" vertex="1">
          <mxGeometry x="130" y="60" width="250" height="26" as="geometry" />
        </mxCell>
        <mxCell id="sq_Sm_KLbccSPEKtcpqH-9" value="" style="rounded=0;whiteSpace=wrap;html=1;" parent="sq_Sm_KLbccSPEKtcpqH-1" vertex="1">
          <mxGeometry y="110" width="1220" height="540" as="geometry" />
        </mxCell>
        <mxCell id="sq_Sm_KLbccSPEKtcpqH-10" value="" style="endArrow=none;html=1;rounded=0;entryX=1;entryY=0;entryDx=0;entryDy=0;exitX=0;exitY=1;exitDx=0;exitDy=0;" parent="sq_Sm_KLbccSPEKtcpqH-1" source="sq_Sm_KLbccSPEKtcpqH-9" target="sq_Sm_KLbccSPEKtcpqH-9" edge="1">
          <mxGeometry width="50" height="50" relative="1" as="geometry">
            <mxPoint x="630" y="420" as="sourcePoint" />
            <mxPoint x="680" y="370" as="targetPoint" />
          </mxGeometry>
        </mxCell>
        <mxCell id="sq_Sm_KLbccSPEKtcpqH-11" value="" style="endArrow=none;html=1;rounded=0;entryX=0;entryY=0;entryDx=0;entryDy=0;exitX=1;exitY=1;exitDx=0;exitDy=0;" parent="sq_Sm_KLbccSPEKtcpqH-1" source="sq_Sm_KLbccSPEKtcpqH-9" target="sq_Sm_KLbccSPEKtcpqH-9" edge="1">
          <mxGeometry width="50" height="50" relative="1" as="geometry">
            <mxPoint x="630" y="420" as="sourcePoint" />
            <mxPoint x="680" y="370" as="targetPoint" />
          </mxGeometry>
        </mxCell>
        <mxCell id="sq_Sm_KLbccSPEKtcpqH-4" value="" style="rounded=0;whiteSpace=wrap;html=1;" parent="sq_Sm_KLbccSPEKtcpqH-1" vertex="1">
          <mxGeometry y="110" width="1220" height="60" as="geometry" />
        </mxCell>
        <mxCell id="sq_Sm_KLbccSPEKtcpqH-5" value="" style="ellipse;whiteSpace=wrap;html=1;aspect=fixed;" parent="sq_Sm_KLbccSPEKtcpqH-1" vertex="1">
          <mxGeometry x="10" y="120" width="40" height="40" as="geometry" />
        </mxCell>
        <mxCell id="sq_Sm_KLbccSPEKtcpqH-6" value="" style="rounded=1;whiteSpace=wrap;html=1;" parent="sq_Sm_KLbccSPEKtcpqH-1" vertex="1">
          <mxGeometry x="70" y="125" width="60" height="30" as="geometry" />
        </mxCell>
        <mxCell id="sq_Sm_KLbccSPEKtcpqH-7" value="" style="rounded=1;whiteSpace=wrap;html=1;" parent="sq_Sm_KLbccSPEKtcpqH-1" vertex="1">
          <mxGeometry x="150" y="125" width="60" height="30" as="geometry" />
        </mxCell>
        <mxCell id="sq_Sm_KLbccSPEKtcpqH-8" value="" style="rounded=1;whiteSpace=wrap;html=1;" parent="sq_Sm_KLbccSPEKtcpqH-1" vertex="1">
          <mxGeometry x="230" y="125" width="60" height="30" as="geometry" />
        </mxCell>
        <mxCell id="qX7h59sWBMEjEFQJi3sr-294" value="" style="sketch=0;pointerEvents=1;shadow=0;dashed=0;html=1;strokeColor=none;fillColor=#505050;labelPosition=center;verticalLabelPosition=bottom;verticalAlign=top;outlineConnect=0;align=center;shape=mxgraph.office.concepts.marketplace_shopping_bag;" parent="sq_Sm_KLbccSPEKtcpqH-1" vertex="1">
          <mxGeometry x="1171" y="125" width="30" height="30" as="geometry" />
        </mxCell>
        <mxCell id="qX7h59sWBMEjEFQJi3sr-336" value="" style="rounded=0;whiteSpace=wrap;html=1;" parent="sq_Sm_KLbccSPEKtcpqH-1" vertex="1">
          <mxGeometry x="550" y="360" width="120" height="60" as="geometry" />
        </mxCell>
        <mxCell id="qX7h59sWBMEjEFQJi3sr-330" value="Gallery" style="text;html=1;align=center;verticalAlign=middle;whiteSpace=wrap;rounded=0;fontStyle=1;fontSize=24;" parent="sq_Sm_KLbccSPEKtcpqH-1" vertex="1">
          <mxGeometry x="565" y="370" width="90" height="40" as="geometry" />
        </mxCell>
        <mxCell id="sq_Sm_KLbccSPEKtcpqH-12" value="" style="strokeWidth=1;shadow=0;dashed=0;align=center;html=1;shape=mxgraph.mockup.containers.browserWindow;rSize=0;strokeColor=#666666;strokeColor2=#008cff;strokeColor3=#c4c4c4;mainText=,;recursiveResize=0;fontSize=13;" parent="1" vertex="1">
          <mxGeometry x="1390" y="110" width="1220" height="990" as="geometry" />
        </mxCell>
        <mxCell id="sq_Sm_KLbccSPEKtcpqH-13" value="Menu" style="strokeWidth=1;shadow=0;dashed=0;align=center;html=1;shape=mxgraph.mockup.containers.anchor;fontSize=17;fontColor=#666666;align=left;whiteSpace=wrap;" parent="sq_Sm_KLbccSPEKtcpqH-12" vertex="1">
          <mxGeometry x="60" y="12" width="110" height="26" as="geometry" />
        </mxCell>
        <mxCell id="sq_Sm_KLbccSPEKtcpqH-14" value="https://www.draw.io" style="strokeWidth=1;shadow=0;dashed=0;align=center;html=1;shape=mxgraph.mockup.containers.anchor;rSize=0;fontSize=17;fontColor=#666666;align=left;" parent="sq_Sm_KLbccSPEKtcpqH-12" vertex="1">
          <mxGeometry x="130" y="60" width="250" height="26" as="geometry" />
        </mxCell>
        <mxCell id="qX7h59sWBMEjEFQJi3sr-295" value="" style="rounded=0;whiteSpace=wrap;html=1;" parent="sq_Sm_KLbccSPEKtcpqH-12" vertex="1">
          <mxGeometry y="110" width="1220" height="60" as="geometry" />
        </mxCell>
        <mxCell id="qX7h59sWBMEjEFQJi3sr-296" value="" style="ellipse;whiteSpace=wrap;html=1;aspect=fixed;" parent="sq_Sm_KLbccSPEKtcpqH-12" vertex="1">
          <mxGeometry x="10" y="120" width="40" height="40" as="geometry" />
        </mxCell>
        <mxCell id="qX7h59sWBMEjEFQJi3sr-297" value="" style="rounded=1;whiteSpace=wrap;html=1;" parent="sq_Sm_KLbccSPEKtcpqH-12" vertex="1">
          <mxGeometry x="70" y="125" width="60" height="30" as="geometry" />
        </mxCell>
        <mxCell id="qX7h59sWBMEjEFQJi3sr-298" value="" style="rounded=1;whiteSpace=wrap;html=1;" parent="sq_Sm_KLbccSPEKtcpqH-12" vertex="1">
          <mxGeometry x="150" y="125" width="60" height="30" as="geometry" />
        </mxCell>
        <mxCell id="qX7h59sWBMEjEFQJi3sr-299" value="" style="rounded=1;whiteSpace=wrap;html=1;" parent="sq_Sm_KLbccSPEKtcpqH-12" vertex="1">
          <mxGeometry x="230" y="125" width="60" height="30" as="geometry" />
        </mxCell>
        <mxCell id="qX7h59sWBMEjEFQJi3sr-300" value="" style="sketch=0;pointerEvents=1;shadow=0;dashed=0;html=1;strokeColor=none;fillColor=#505050;labelPosition=center;verticalLabelPosition=bottom;verticalAlign=top;outlineConnect=0;align=center;shape=mxgraph.office.concepts.marketplace_shopping_bag;" parent="sq_Sm_KLbccSPEKtcpqH-12" vertex="1">
          <mxGeometry x="1171" y="125" width="30" height="30" as="geometry" />
        </mxCell>
        <mxCell id="Y0lsKzphogrTrDtlBaw0-2" value="" style="sketch=0;outlineConnect=0;fontColor=#232F3E;gradientColor=none;fillColor=#ED7100;strokeColor=none;dashed=0;verticalLabelPosition=bottom;verticalAlign=top;align=center;html=1;fontSize=12;fontStyle=0;aspect=fixed;pointerEvents=1;shape=mxgraph.aws4.container_registry_image;" vertex="1" parent="sq_Sm_KLbccSPEKtcpqH-12">
          <mxGeometry x="210" y="310" width="48" height="48" as="geometry" />
        </mxCell>
        <mxCell id="Y0lsKzphogrTrDtlBaw0-3" value="Product Title" style="text;html=1;align=center;verticalAlign=middle;whiteSpace=wrap;rounded=0;fontSize=18;" vertex="1" parent="sq_Sm_KLbccSPEKtcpqH-12">
          <mxGeometry x="271" y="310" width="139" height="30" as="geometry" />
        </mxCell>
        <mxCell id="Y0lsKzphogrTrDtlBaw0-4" value="Subtract" style="labelPosition=center;verticalLabelPosition=middle;align=center;html=1;shape=mxgraph.basic.button;dx=10;whiteSpace=wrap;" vertex="1" parent="sq_Sm_KLbccSPEKtcpqH-12">
          <mxGeometry x="820" y="314" width="70" height="40" as="geometry" />
        </mxCell>
        <mxCell id="Y0lsKzphogrTrDtlBaw0-5" value="Add" style="labelPosition=center;verticalLabelPosition=middle;align=center;html=1;shape=mxgraph.basic.button;dx=10;whiteSpace=wrap;" vertex="1" parent="sq_Sm_KLbccSPEKtcpqH-12">
          <mxGeometry x="930" y="314" width="50" height="40" as="geometry" />
        </mxCell>
        <mxCell id="Y0lsKzphogrTrDtlBaw0-6" value="3" style="rounded=0;whiteSpace=wrap;html=1;" vertex="1" parent="sq_Sm_KLbccSPEKtcpqH-12">
          <mxGeometry x="900" y="324" width="20" height="20" as="geometry" />
        </mxCell>
        <mxCell id="Y0lsKzphogrTrDtlBaw0-38" value="Product description" style="text;html=1;align=center;verticalAlign=middle;whiteSpace=wrap;rounded=0;fontSize=14;" vertex="1" parent="sq_Sm_KLbccSPEKtcpqH-12">
          <mxGeometry x="300" y="328" width="139" height="30" as="geometry" />
        </mxCell>
        <mxCell id="Y0lsKzphogrTrDtlBaw0-39" value="Add to cart" style="rounded=0;whiteSpace=wrap;html=1;fontSize=14;" vertex="1" parent="sq_Sm_KLbccSPEKtcpqH-12">
          <mxGeometry x="1010" y="315" width="80" height="38" as="geometry" />
        </mxCell>
        <mxCell id="Y0lsKzphogrTrDtlBaw0-40" value="&lt;h1 style=&quot;margin-top: 0px;&quot;&gt;Category&lt;/h1&gt;" style="text;html=1;whiteSpace=wrap;overflow=hidden;rounded=0;" vertex="1" parent="sq_Sm_KLbccSPEKtcpqH-12">
          <mxGeometry x="170" y="250" width="120" height="40" as="geometry" />
        </mxCell>
        <mxCell id="Y0lsKzphogrTrDtlBaw0-41" value="" style="sketch=0;outlineConnect=0;fontColor=#232F3E;gradientColor=none;fillColor=#ED7100;strokeColor=none;dashed=0;verticalLabelPosition=bottom;verticalAlign=top;align=center;html=1;fontSize=12;fontStyle=0;aspect=fixed;pointerEvents=1;shape=mxgraph.aws4.container_registry_image;" vertex="1" parent="sq_Sm_KLbccSPEKtcpqH-12">
          <mxGeometry x="210" y="380" width="48" height="48" as="geometry" />
        </mxCell>
        <mxCell id="Y0lsKzphogrTrDtlBaw0-42" value="Product Title" style="text;html=1;align=center;verticalAlign=middle;whiteSpace=wrap;rounded=0;fontSize=18;" vertex="1" parent="sq_Sm_KLbccSPEKtcpqH-12">
          <mxGeometry x="271" y="380" width="139" height="30" as="geometry" />
        </mxCell>
        <mxCell id="Y0lsKzphogrTrDtlBaw0-43" value="Subtract" style="labelPosition=center;verticalLabelPosition=middle;align=center;html=1;shape=mxgraph.basic.button;dx=10;whiteSpace=wrap;" vertex="1" parent="sq_Sm_KLbccSPEKtcpqH-12">
          <mxGeometry x="820" y="384" width="70" height="40" as="geometry" />
        </mxCell>
        <mxCell id="Y0lsKzphogrTrDtlBaw0-44" value="Add" style="labelPosition=center;verticalLabelPosition=middle;align=center;html=1;shape=mxgraph.basic.button;dx=10;whiteSpace=wrap;" vertex="1" parent="sq_Sm_KLbccSPEKtcpqH-12">
          <mxGeometry x="930" y="384" width="50" height="40" as="geometry" />
        </mxCell>
        <mxCell id="Y0lsKzphogrTrDtlBaw0-45" value="3" style="rounded=0;whiteSpace=wrap;html=1;" vertex="1" parent="sq_Sm_KLbccSPEKtcpqH-12">
          <mxGeometry x="900" y="394" width="20" height="20" as="geometry" />
        </mxCell>
        <mxCell id="Y0lsKzphogrTrDtlBaw0-46" value="Product description" style="text;html=1;align=center;verticalAlign=middle;whiteSpace=wrap;rounded=0;fontSize=14;" vertex="1" parent="sq_Sm_KLbccSPEKtcpqH-12">
          <mxGeometry x="300" y="398" width="139" height="30" as="geometry" />
        </mxCell>
        <mxCell id="Y0lsKzphogrTrDtlBaw0-47" value="Add to cart" style="rounded=0;whiteSpace=wrap;html=1;fontSize=14;" vertex="1" parent="sq_Sm_KLbccSPEKtcpqH-12">
          <mxGeometry x="1010" y="385" width="80" height="38" as="geometry" />
        </mxCell>
        <mxCell id="Y0lsKzphogrTrDtlBaw0-48" value="" style="sketch=0;outlineConnect=0;fontColor=#232F3E;gradientColor=none;fillColor=#ED7100;strokeColor=none;dashed=0;verticalLabelPosition=bottom;verticalAlign=top;align=center;html=1;fontSize=12;fontStyle=0;aspect=fixed;pointerEvents=1;shape=mxgraph.aws4.container_registry_image;" vertex="1" parent="sq_Sm_KLbccSPEKtcpqH-12">
          <mxGeometry x="210" y="451" width="48" height="48" as="geometry" />
        </mxCell>
        <mxCell id="Y0lsKzphogrTrDtlBaw0-49" value="Product Title" style="text;html=1;align=center;verticalAlign=middle;whiteSpace=wrap;rounded=0;fontSize=18;" vertex="1" parent="sq_Sm_KLbccSPEKtcpqH-12">
          <mxGeometry x="271" y="451" width="139" height="30" as="geometry" />
        </mxCell>
        <mxCell id="Y0lsKzphogrTrDtlBaw0-50" value="Subtract" style="labelPosition=center;verticalLabelPosition=middle;align=center;html=1;shape=mxgraph.basic.button;dx=10;whiteSpace=wrap;" vertex="1" parent="sq_Sm_KLbccSPEKtcpqH-12">
          <mxGeometry x="820" y="455" width="70" height="40" as="geometry" />
        </mxCell>
        <mxCell id="Y0lsKzphogrTrDtlBaw0-51" value="Add" style="labelPosition=center;verticalLabelPosition=middle;align=center;html=1;shape=mxgraph.basic.button;dx=10;whiteSpace=wrap;" vertex="1" parent="sq_Sm_KLbccSPEKtcpqH-12">
          <mxGeometry x="930" y="455" width="50" height="40" as="geometry" />
        </mxCell>
        <mxCell id="Y0lsKzphogrTrDtlBaw0-52" value="3" style="rounded=0;whiteSpace=wrap;html=1;" vertex="1" parent="sq_Sm_KLbccSPEKtcpqH-12">
          <mxGeometry x="900" y="465" width="20" height="20" as="geometry" />
        </mxCell>
        <mxCell id="Y0lsKzphogrTrDtlBaw0-53" value="Product description" style="text;html=1;align=center;verticalAlign=middle;whiteSpace=wrap;rounded=0;fontSize=14;" vertex="1" parent="sq_Sm_KLbccSPEKtcpqH-12">
          <mxGeometry x="300" y="469" width="139" height="30" as="geometry" />
        </mxCell>
        <mxCell id="Y0lsKzphogrTrDtlBaw0-54" value="Add to cart" style="rounded=0;whiteSpace=wrap;html=1;fontSize=14;" vertex="1" parent="sq_Sm_KLbccSPEKtcpqH-12">
          <mxGeometry x="1010" y="456" width="80" height="38" as="geometry" />
        </mxCell>
        <mxCell id="Y0lsKzphogrTrDtlBaw0-55" value="" style="sketch=0;outlineConnect=0;fontColor=#232F3E;gradientColor=none;fillColor=#ED7100;strokeColor=none;dashed=0;verticalLabelPosition=bottom;verticalAlign=top;align=center;html=1;fontSize=12;fontStyle=0;aspect=fixed;pointerEvents=1;shape=mxgraph.aws4.container_registry_image;" vertex="1" parent="sq_Sm_KLbccSPEKtcpqH-12">
          <mxGeometry x="210" y="520" width="48" height="48" as="geometry" />
        </mxCell>
        <mxCell id="Y0lsKzphogrTrDtlBaw0-56" value="Product Title" style="text;html=1;align=center;verticalAlign=middle;whiteSpace=wrap;rounded=0;fontSize=18;" vertex="1" parent="sq_Sm_KLbccSPEKtcpqH-12">
          <mxGeometry x="271" y="520" width="139" height="30" as="geometry" />
        </mxCell>
        <mxCell id="Y0lsKzphogrTrDtlBaw0-57" value="Subtract" style="labelPosition=center;verticalLabelPosition=middle;align=center;html=1;shape=mxgraph.basic.button;dx=10;whiteSpace=wrap;" vertex="1" parent="sq_Sm_KLbccSPEKtcpqH-12">
          <mxGeometry x="820" y="524" width="70" height="40" as="geometry" />
        </mxCell>
        <mxCell id="Y0lsKzphogrTrDtlBaw0-58" value="Add" style="labelPosition=center;verticalLabelPosition=middle;align=center;html=1;shape=mxgraph.basic.button;dx=10;whiteSpace=wrap;" vertex="1" parent="sq_Sm_KLbccSPEKtcpqH-12">
          <mxGeometry x="930" y="524" width="50" height="40" as="geometry" />
        </mxCell>
        <mxCell id="Y0lsKzphogrTrDtlBaw0-59" value="3" style="rounded=0;whiteSpace=wrap;html=1;" vertex="1" parent="sq_Sm_KLbccSPEKtcpqH-12">
          <mxGeometry x="900" y="534" width="20" height="20" as="geometry" />
        </mxCell>
        <mxCell id="Y0lsKzphogrTrDtlBaw0-60" value="Product description" style="text;html=1;align=center;verticalAlign=middle;whiteSpace=wrap;rounded=0;fontSize=14;" vertex="1" parent="sq_Sm_KLbccSPEKtcpqH-12">
          <mxGeometry x="300" y="538" width="139" height="30" as="geometry" />
        </mxCell>
        <mxCell id="Y0lsKzphogrTrDtlBaw0-61" value="Add to cart" style="rounded=0;whiteSpace=wrap;html=1;fontSize=14;" vertex="1" parent="sq_Sm_KLbccSPEKtcpqH-12">
          <mxGeometry x="1010" y="525" width="80" height="38" as="geometry" />
        </mxCell>
        <mxCell id="Y0lsKzphogrTrDtlBaw0-62" value="" style="sketch=0;outlineConnect=0;fontColor=#232F3E;gradientColor=none;fillColor=#ED7100;strokeColor=none;dashed=0;verticalLabelPosition=bottom;verticalAlign=top;align=center;html=1;fontSize=12;fontStyle=0;aspect=fixed;pointerEvents=1;shape=mxgraph.aws4.container_registry_image;" vertex="1" parent="sq_Sm_KLbccSPEKtcpqH-12">
          <mxGeometry x="210" y="650" width="48" height="48" as="geometry" />
        </mxCell>
        <mxCell id="Y0lsKzphogrTrDtlBaw0-63" value="Product Title" style="text;html=1;align=center;verticalAlign=middle;whiteSpace=wrap;rounded=0;fontSize=18;" vertex="1" parent="sq_Sm_KLbccSPEKtcpqH-12">
          <mxGeometry x="271" y="650" width="139" height="30" as="geometry" />
        </mxCell>
        <mxCell id="Y0lsKzphogrTrDtlBaw0-64" value="Subtract" style="labelPosition=center;verticalLabelPosition=middle;align=center;html=1;shape=mxgraph.basic.button;dx=10;whiteSpace=wrap;" vertex="1" parent="sq_Sm_KLbccSPEKtcpqH-12">
          <mxGeometry x="820" y="654" width="70" height="40" as="geometry" />
        </mxCell>
        <mxCell id="Y0lsKzphogrTrDtlBaw0-65" value="Add" style="labelPosition=center;verticalLabelPosition=middle;align=center;html=1;shape=mxgraph.basic.button;dx=10;whiteSpace=wrap;" vertex="1" parent="sq_Sm_KLbccSPEKtcpqH-12">
          <mxGeometry x="930" y="654" width="50" height="40" as="geometry" />
        </mxCell>
        <mxCell id="Y0lsKzphogrTrDtlBaw0-66" value="3" style="rounded=0;whiteSpace=wrap;html=1;" vertex="1" parent="sq_Sm_KLbccSPEKtcpqH-12">
          <mxGeometry x="900" y="664" width="20" height="20" as="geometry" />
        </mxCell>
        <mxCell id="Y0lsKzphogrTrDtlBaw0-67" value="Product description" style="text;html=1;align=center;verticalAlign=middle;whiteSpace=wrap;rounded=0;fontSize=14;" vertex="1" parent="sq_Sm_KLbccSPEKtcpqH-12">
          <mxGeometry x="300" y="668" width="139" height="30" as="geometry" />
        </mxCell>
        <mxCell id="Y0lsKzphogrTrDtlBaw0-68" value="Add to cart" style="rounded=0;whiteSpace=wrap;html=1;fontSize=14;" vertex="1" parent="sq_Sm_KLbccSPEKtcpqH-12">
          <mxGeometry x="1010" y="655" width="80" height="38" as="geometry" />
        </mxCell>
        <mxCell id="Y0lsKzphogrTrDtlBaw0-69" value="&lt;h1 style=&quot;margin-top: 0px;&quot;&gt;Category&lt;/h1&gt;" style="text;html=1;whiteSpace=wrap;overflow=hidden;rounded=0;" vertex="1" parent="sq_Sm_KLbccSPEKtcpqH-12">
          <mxGeometry x="170" y="590" width="120" height="40" as="geometry" />
        </mxCell>
        <mxCell id="Y0lsKzphogrTrDtlBaw0-70" value="" style="sketch=0;outlineConnect=0;fontColor=#232F3E;gradientColor=none;fillColor=#ED7100;strokeColor=none;dashed=0;verticalLabelPosition=bottom;verticalAlign=top;align=center;html=1;fontSize=12;fontStyle=0;aspect=fixed;pointerEvents=1;shape=mxgraph.aws4.container_registry_image;" vertex="1" parent="sq_Sm_KLbccSPEKtcpqH-12">
          <mxGeometry x="210" y="720" width="48" height="48" as="geometry" />
        </mxCell>
        <mxCell id="Y0lsKzphogrTrDtlBaw0-71" value="Product Title" style="text;html=1;align=center;verticalAlign=middle;whiteSpace=wrap;rounded=0;fontSize=18;" vertex="1" parent="sq_Sm_KLbccSPEKtcpqH-12">
          <mxGeometry x="271" y="720" width="139" height="30" as="geometry" />
        </mxCell>
        <mxCell id="Y0lsKzphogrTrDtlBaw0-72" value="Subtract" style="labelPosition=center;verticalLabelPosition=middle;align=center;html=1;shape=mxgraph.basic.button;dx=10;whiteSpace=wrap;" vertex="1" parent="sq_Sm_KLbccSPEKtcpqH-12">
          <mxGeometry x="820" y="724" width="70" height="40" as="geometry" />
        </mxCell>
        <mxCell id="Y0lsKzphogrTrDtlBaw0-73" value="Add" style="labelPosition=center;verticalLabelPosition=middle;align=center;html=1;shape=mxgraph.basic.button;dx=10;whiteSpace=wrap;" vertex="1" parent="sq_Sm_KLbccSPEKtcpqH-12">
          <mxGeometry x="930" y="724" width="50" height="40" as="geometry" />
        </mxCell>
        <mxCell id="Y0lsKzphogrTrDtlBaw0-74" value="3" style="rounded=0;whiteSpace=wrap;html=1;" vertex="1" parent="sq_Sm_KLbccSPEKtcpqH-12">
          <mxGeometry x="900" y="734" width="20" height="20" as="geometry" />
        </mxCell>
        <mxCell id="Y0lsKzphogrTrDtlBaw0-75" value="Product description" style="text;html=1;align=center;verticalAlign=middle;whiteSpace=wrap;rounded=0;fontSize=14;" vertex="1" parent="sq_Sm_KLbccSPEKtcpqH-12">
          <mxGeometry x="300" y="738" width="139" height="30" as="geometry" />
        </mxCell>
        <mxCell id="Y0lsKzphogrTrDtlBaw0-76" value="Add to cart" style="rounded=0;whiteSpace=wrap;html=1;fontSize=14;" vertex="1" parent="sq_Sm_KLbccSPEKtcpqH-12">
          <mxGeometry x="1010" y="725" width="80" height="38" as="geometry" />
        </mxCell>
        <mxCell id="Y0lsKzphogrTrDtlBaw0-77" value="" style="sketch=0;outlineConnect=0;fontColor=#232F3E;gradientColor=none;fillColor=#ED7100;strokeColor=none;dashed=0;verticalLabelPosition=bottom;verticalAlign=top;align=center;html=1;fontSize=12;fontStyle=0;aspect=fixed;pointerEvents=1;shape=mxgraph.aws4.container_registry_image;" vertex="1" parent="sq_Sm_KLbccSPEKtcpqH-12">
          <mxGeometry x="210" y="791" width="48" height="48" as="geometry" />
        </mxCell>
        <mxCell id="Y0lsKzphogrTrDtlBaw0-78" value="Product Title" style="text;html=1;align=center;verticalAlign=middle;whiteSpace=wrap;rounded=0;fontSize=18;" vertex="1" parent="sq_Sm_KLbccSPEKtcpqH-12">
          <mxGeometry x="271" y="791" width="139" height="30" as="geometry" />
        </mxCell>
        <mxCell id="Y0lsKzphogrTrDtlBaw0-79" value="Subtract" style="labelPosition=center;verticalLabelPosition=middle;align=center;html=1;shape=mxgraph.basic.button;dx=10;whiteSpace=wrap;" vertex="1" parent="sq_Sm_KLbccSPEKtcpqH-12">
          <mxGeometry x="820" y="795" width="70" height="40" as="geometry" />
        </mxCell>
        <mxCell id="Y0lsKzphogrTrDtlBaw0-80" value="Add" style="labelPosition=center;verticalLabelPosition=middle;align=center;html=1;shape=mxgraph.basic.button;dx=10;whiteSpace=wrap;" vertex="1" parent="sq_Sm_KLbccSPEKtcpqH-12">
          <mxGeometry x="930" y="795" width="50" height="40" as="geometry" />
        </mxCell>
        <mxCell id="Y0lsKzphogrTrDtlBaw0-81" value="3" style="rounded=0;whiteSpace=wrap;html=1;" vertex="1" parent="sq_Sm_KLbccSPEKtcpqH-12">
          <mxGeometry x="900" y="805" width="20" height="20" as="geometry" />
        </mxCell>
        <mxCell id="Y0lsKzphogrTrDtlBaw0-82" value="Product description" style="text;html=1;align=center;verticalAlign=middle;whiteSpace=wrap;rounded=0;fontSize=14;" vertex="1" parent="sq_Sm_KLbccSPEKtcpqH-12">
          <mxGeometry x="300" y="809" width="139" height="30" as="geometry" />
        </mxCell>
        <mxCell id="Y0lsKzphogrTrDtlBaw0-83" value="Add to cart" style="rounded=0;whiteSpace=wrap;html=1;fontSize=14;" vertex="1" parent="sq_Sm_KLbccSPEKtcpqH-12">
          <mxGeometry x="1010" y="796" width="80" height="38" as="geometry" />
        </mxCell>
        <mxCell id="sq_Sm_KLbccSPEKtcpqH-23" value="" style="strokeWidth=1;shadow=0;dashed=0;align=center;html=1;shape=mxgraph.mockup.containers.browserWindow;rSize=0;strokeColor=#666666;strokeColor2=#008cff;strokeColor3=#c4c4c4;mainText=,;recursiveResize=0;" parent="1" vertex="1">
          <mxGeometry x="2760" y="110" width="1220" height="990" as="geometry" />
        </mxCell>
        <mxCell id="sq_Sm_KLbccSPEKtcpqH-24" value="Order" style="strokeWidth=1;shadow=0;dashed=0;align=center;html=1;shape=mxgraph.mockup.containers.anchor;fontSize=17;fontColor=#666666;align=left;whiteSpace=wrap;" parent="sq_Sm_KLbccSPEKtcpqH-23" vertex="1">
          <mxGeometry x="60" y="12" width="110" height="26" as="geometry" />
        </mxCell>
        <mxCell id="sq_Sm_KLbccSPEKtcpqH-25" value="https://www.draw.io" style="strokeWidth=1;shadow=0;dashed=0;align=center;html=1;shape=mxgraph.mockup.containers.anchor;rSize=0;fontSize=17;fontColor=#666666;align=left;" parent="sq_Sm_KLbccSPEKtcpqH-23" vertex="1">
          <mxGeometry x="130" y="60" width="250" height="26" as="geometry" />
        </mxCell>
        <mxCell id="sq_Sm_KLbccSPEKtcpqH-50" value="" style="strokeWidth=1;shadow=0;dashed=0;align=center;html=1;shape=mxgraph.mockup.forms.rrect;rSize=0;strokeColor=#999999;fillColor=#ffffff;" parent="sq_Sm_KLbccSPEKtcpqH-23" vertex="1">
          <mxGeometry x="170" y="290" width="270" height="370" as="geometry" />
        </mxCell>
        <mxCell id="sq_Sm_KLbccSPEKtcpqH-53" value="Name" style="strokeWidth=1;shadow=0;dashed=0;align=center;html=1;shape=mxgraph.mockup.forms.anchor;fontSize=12;fontColor=#666666;align=left;resizeWidth=1;spacingLeft=0;" parent="sq_Sm_KLbccSPEKtcpqH-50" vertex="1">
          <mxGeometry width="135" height="20" relative="1" as="geometry">
            <mxPoint x="10" y="10" as="offset" />
          </mxGeometry>
        </mxCell>
        <mxCell id="sq_Sm_KLbccSPEKtcpqH-54" value="johndoe" style="strokeWidth=1;shadow=0;dashed=0;align=center;html=1;shape=mxgraph.mockup.forms.rrect;rSize=0;strokeColor=#999999;fontColor=#666666;align=left;spacingLeft=5;resizeWidth=1;" parent="sq_Sm_KLbccSPEKtcpqH-50" vertex="1">
          <mxGeometry width="202.5" height="25" relative="1" as="geometry">
            <mxPoint x="10" y="30" as="offset" />
          </mxGeometry>
        </mxCell>
        <mxCell id="sq_Sm_KLbccSPEKtcpqH-55" value="Address Line 1" style="strokeWidth=1;shadow=0;dashed=0;align=center;html=1;shape=mxgraph.mockup.forms.anchor;fontSize=12;fontColor=#666666;align=left;resizeWidth=1;spacingLeft=0;" parent="sq_Sm_KLbccSPEKtcpqH-50" vertex="1">
          <mxGeometry width="135" height="20" relative="1" as="geometry">
            <mxPoint x="10" y="60" as="offset" />
          </mxGeometry>
        </mxCell>
        <mxCell id="sq_Sm_KLbccSPEKtcpqH-56" value="3 O Connel St" style="strokeWidth=1;shadow=0;dashed=0;align=center;html=1;shape=mxgraph.mockup.forms.rrect;rSize=0;strokeColor=#999999;fontColor=#666666;align=left;spacingLeft=5;resizeWidth=1;" parent="sq_Sm_KLbccSPEKtcpqH-50" vertex="1">
          <mxGeometry width="202.5" height="25" relative="1" as="geometry">
            <mxPoint x="10" y="80" as="offset" />
          </mxGeometry>
        </mxCell>
        <mxCell id="sq_Sm_KLbccSPEKtcpqH-57" value="Continue to Payment" style="strokeWidth=1;shadow=0;dashed=0;align=center;html=1;shape=mxgraph.mockup.forms.rrect;rSize=5;strokeColor=none;fontColor=#ffffff;fillColor=#66bbff;fontSize=16;fontStyle=1;" parent="sq_Sm_KLbccSPEKtcpqH-50" vertex="1">
          <mxGeometry y="1" width="170" height="30" relative="1" as="geometry">
            <mxPoint x="90" y="-50" as="offset" />
          </mxGeometry>
        </mxCell>
        <mxCell id="qX7h59sWBMEjEFQJi3sr-73" value="Address Line 2" style="strokeWidth=1;shadow=0;dashed=0;align=center;html=1;shape=mxgraph.mockup.forms.anchor;fontSize=12;fontColor=#666666;align=left;resizeWidth=1;spacingLeft=0;" parent="sq_Sm_KLbccSPEKtcpqH-50" vertex="1">
          <mxGeometry x="10" y="107.1052631578943" width="135" height="19.473684210526315" as="geometry" />
        </mxCell>
        <mxCell id="qX7h59sWBMEjEFQJi3sr-74" value="Dublin City" style="strokeWidth=1;shadow=0;dashed=0;align=center;html=1;shape=mxgraph.mockup.forms.rrect;rSize=0;strokeColor=#999999;fontColor=#666666;align=left;spacingLeft=5;resizeWidth=1;" parent="sq_Sm_KLbccSPEKtcpqH-50" vertex="1">
          <mxGeometry x="10" y="126.57894736842061" width="202.5" height="24.342105263157894" as="geometry" />
        </mxCell>
        <mxCell id="qX7h59sWBMEjEFQJi3sr-75" value="County" style="strokeWidth=1;shadow=0;dashed=0;align=center;html=1;shape=mxgraph.mockup.forms.anchor;fontSize=12;fontColor=#666666;align=left;resizeWidth=1;spacingLeft=0;" parent="sq_Sm_KLbccSPEKtcpqH-50" vertex="1">
          <mxGeometry x="10" y="155.7894736842101" width="135" height="19.473684210526315" as="geometry" />
        </mxCell>
        <mxCell id="qX7h59sWBMEjEFQJi3sr-76" value="Dublin" style="strokeWidth=1;shadow=0;dashed=0;align=center;html=1;shape=mxgraph.mockup.forms.rrect;rSize=0;strokeColor=#999999;fontColor=#666666;align=left;spacingLeft=5;resizeWidth=1;" parent="sq_Sm_KLbccSPEKtcpqH-50" vertex="1">
          <mxGeometry x="10" y="175.2631578947364" width="202.5" height="24.342105263157894" as="geometry" />
        </mxCell>
        <mxCell id="qX7h59sWBMEjEFQJi3sr-77" value="Eircode" style="strokeWidth=1;shadow=0;dashed=0;align=center;html=1;shape=mxgraph.mockup.forms.anchor;fontSize=12;fontColor=#666666;align=left;resizeWidth=1;spacingLeft=0;" parent="sq_Sm_KLbccSPEKtcpqH-50" vertex="1">
          <mxGeometry x="10" y="204.47368421052587" width="135" height="19.473684210526315" as="geometry" />
        </mxCell>
        <mxCell id="qX7h59sWBMEjEFQJi3sr-78" value="K92LK11" style="strokeWidth=1;shadow=0;dashed=0;align=center;html=1;shape=mxgraph.mockup.forms.rrect;rSize=0;strokeColor=#999999;fontColor=#666666;align=left;spacingLeft=5;resizeWidth=1;" parent="sq_Sm_KLbccSPEKtcpqH-50" vertex="1">
          <mxGeometry x="10" y="223.9473684210522" width="202.5" height="24.342105263157894" as="geometry" />
        </mxCell>
        <mxCell id="qX7h59sWBMEjEFQJi3sr-79" value="Phone Number" style="strokeWidth=1;shadow=0;dashed=0;align=center;html=1;shape=mxgraph.mockup.forms.anchor;fontSize=12;fontColor=#666666;align=left;resizeWidth=1;spacingLeft=0;" parent="sq_Sm_KLbccSPEKtcpqH-50" vertex="1">
          <mxGeometry x="10" y="253.15789473684168" width="135" height="19.473684210526315" as="geometry" />
        </mxCell>
        <mxCell id="qX7h59sWBMEjEFQJi3sr-80" value="55533332" style="strokeWidth=1;shadow=0;dashed=0;align=center;html=1;shape=mxgraph.mockup.forms.rrect;rSize=0;strokeColor=#999999;fontColor=#666666;align=left;spacingLeft=5;resizeWidth=1;" parent="sq_Sm_KLbccSPEKtcpqH-50" vertex="1">
          <mxGeometry x="10" y="272.631578947368" width="202.5" height="24.342105263157894" as="geometry" />
        </mxCell>
        <mxCell id="sq_Sm_KLbccSPEKtcpqH-62" value="&lt;h1 style=&quot;margin-top: 0px;&quot;&gt;Your Details&lt;/h1&gt;" style="text;html=1;whiteSpace=wrap;overflow=hidden;rounded=0;" parent="sq_Sm_KLbccSPEKtcpqH-23" vertex="1">
          <mxGeometry x="170" y="250" width="160" height="40" as="geometry" />
        </mxCell>
        <mxCell id="qX7h59sWBMEjEFQJi3sr-2" value="" style="rounded=0;whiteSpace=wrap;html=1;" parent="sq_Sm_KLbccSPEKtcpqH-23" vertex="1">
          <mxGeometry x="720" y="290" width="370" height="470" as="geometry" />
        </mxCell>
        <mxCell id="qX7h59sWBMEjEFQJi3sr-37" value="" style="sketch=0;outlineConnect=0;fontColor=#232F3E;gradientColor=none;fillColor=#ED7100;strokeColor=none;dashed=0;verticalLabelPosition=bottom;verticalAlign=top;align=center;html=1;fontSize=12;fontStyle=0;aspect=fixed;pointerEvents=1;shape=mxgraph.aws4.container_registry_image;" parent="sq_Sm_KLbccSPEKtcpqH-23" vertex="1">
          <mxGeometry x="739" y="326" width="48" height="48" as="geometry" />
        </mxCell>
        <mxCell id="qX7h59sWBMEjEFQJi3sr-38" value="Product" style="text;html=1;align=center;verticalAlign=middle;whiteSpace=wrap;rounded=0;" parent="sq_Sm_KLbccSPEKtcpqH-23" vertex="1">
          <mxGeometry x="800" y="335" width="60" height="30" as="geometry" />
        </mxCell>
        <mxCell id="qX7h59sWBMEjEFQJi3sr-39" value="Subtract" style="labelPosition=center;verticalLabelPosition=middle;align=center;html=1;shape=mxgraph.basic.button;dx=10;whiteSpace=wrap;" parent="sq_Sm_KLbccSPEKtcpqH-23" vertex="1">
          <mxGeometry x="880" y="330" width="70" height="40" as="geometry" />
        </mxCell>
        <mxCell id="qX7h59sWBMEjEFQJi3sr-40" value="Add" style="labelPosition=center;verticalLabelPosition=middle;align=center;html=1;shape=mxgraph.basic.button;dx=10;whiteSpace=wrap;" parent="sq_Sm_KLbccSPEKtcpqH-23" vertex="1">
          <mxGeometry x="990" y="330" width="50" height="40" as="geometry" />
        </mxCell>
        <mxCell id="qX7h59sWBMEjEFQJi3sr-41" value="3" style="rounded=0;whiteSpace=wrap;html=1;" parent="sq_Sm_KLbccSPEKtcpqH-23" vertex="1">
          <mxGeometry x="960" y="340" width="20" height="20" as="geometry" />
        </mxCell>
        <mxCell id="qX7h59sWBMEjEFQJi3sr-42" value="X" style="ellipse;whiteSpace=wrap;html=1;" parent="sq_Sm_KLbccSPEKtcpqH-23" vertex="1">
          <mxGeometry x="1050" y="340" width="20" height="20" as="geometry" />
        </mxCell>
        <mxCell id="qX7h59sWBMEjEFQJi3sr-43" value="" style="sketch=0;outlineConnect=0;fontColor=#232F3E;gradientColor=none;fillColor=#ED7100;strokeColor=none;dashed=0;verticalLabelPosition=bottom;verticalAlign=top;align=center;html=1;fontSize=12;fontStyle=0;aspect=fixed;pointerEvents=1;shape=mxgraph.aws4.container_registry_image;" parent="sq_Sm_KLbccSPEKtcpqH-23" vertex="1">
          <mxGeometry x="739" y="390" width="48" height="48" as="geometry" />
        </mxCell>
        <mxCell id="qX7h59sWBMEjEFQJi3sr-44" value="Product" style="text;html=1;align=center;verticalAlign=middle;whiteSpace=wrap;rounded=0;" parent="sq_Sm_KLbccSPEKtcpqH-23" vertex="1">
          <mxGeometry x="800" y="399" width="60" height="30" as="geometry" />
        </mxCell>
        <mxCell id="qX7h59sWBMEjEFQJi3sr-45" value="Subtract" style="labelPosition=center;verticalLabelPosition=middle;align=center;html=1;shape=mxgraph.basic.button;dx=10;whiteSpace=wrap;" parent="sq_Sm_KLbccSPEKtcpqH-23" vertex="1">
          <mxGeometry x="880" y="394" width="70" height="40" as="geometry" />
        </mxCell>
        <mxCell id="qX7h59sWBMEjEFQJi3sr-46" value="Add" style="labelPosition=center;verticalLabelPosition=middle;align=center;html=1;shape=mxgraph.basic.button;dx=10;whiteSpace=wrap;" parent="sq_Sm_KLbccSPEKtcpqH-23" vertex="1">
          <mxGeometry x="990" y="394" width="50" height="40" as="geometry" />
        </mxCell>
        <mxCell id="qX7h59sWBMEjEFQJi3sr-47" value="3" style="rounded=0;whiteSpace=wrap;html=1;" parent="sq_Sm_KLbccSPEKtcpqH-23" vertex="1">
          <mxGeometry x="960" y="404" width="20" height="20" as="geometry" />
        </mxCell>
        <mxCell id="qX7h59sWBMEjEFQJi3sr-48" value="X" style="ellipse;whiteSpace=wrap;html=1;" parent="sq_Sm_KLbccSPEKtcpqH-23" vertex="1">
          <mxGeometry x="1050" y="404" width="20" height="20" as="geometry" />
        </mxCell>
        <mxCell id="qX7h59sWBMEjEFQJi3sr-49" value="" style="sketch=0;outlineConnect=0;fontColor=#232F3E;gradientColor=none;fillColor=#ED7100;strokeColor=none;dashed=0;verticalLabelPosition=bottom;verticalAlign=top;align=center;html=1;fontSize=12;fontStyle=0;aspect=fixed;pointerEvents=1;shape=mxgraph.aws4.container_registry_image;" parent="sq_Sm_KLbccSPEKtcpqH-23" vertex="1">
          <mxGeometry x="739" y="460" width="48" height="48" as="geometry" />
        </mxCell>
        <mxCell id="qX7h59sWBMEjEFQJi3sr-50" value="Product" style="text;html=1;align=center;verticalAlign=middle;whiteSpace=wrap;rounded=0;" parent="sq_Sm_KLbccSPEKtcpqH-23" vertex="1">
          <mxGeometry x="800" y="469" width="60" height="30" as="geometry" />
        </mxCell>
        <mxCell id="qX7h59sWBMEjEFQJi3sr-51" value="Subtract" style="labelPosition=center;verticalLabelPosition=middle;align=center;html=1;shape=mxgraph.basic.button;dx=10;whiteSpace=wrap;" parent="sq_Sm_KLbccSPEKtcpqH-23" vertex="1">
          <mxGeometry x="880" y="464" width="70" height="40" as="geometry" />
        </mxCell>
        <mxCell id="qX7h59sWBMEjEFQJi3sr-52" value="Add" style="labelPosition=center;verticalLabelPosition=middle;align=center;html=1;shape=mxgraph.basic.button;dx=10;whiteSpace=wrap;" parent="sq_Sm_KLbccSPEKtcpqH-23" vertex="1">
          <mxGeometry x="990" y="464" width="50" height="40" as="geometry" />
        </mxCell>
        <mxCell id="qX7h59sWBMEjEFQJi3sr-53" value="3" style="rounded=0;whiteSpace=wrap;html=1;" parent="sq_Sm_KLbccSPEKtcpqH-23" vertex="1">
          <mxGeometry x="960" y="474" width="20" height="20" as="geometry" />
        </mxCell>
        <mxCell id="qX7h59sWBMEjEFQJi3sr-54" value="X" style="ellipse;whiteSpace=wrap;html=1;" parent="sq_Sm_KLbccSPEKtcpqH-23" vertex="1">
          <mxGeometry x="1050" y="474" width="20" height="20" as="geometry" />
        </mxCell>
        <mxCell id="qX7h59sWBMEjEFQJi3sr-55" value="" style="sketch=0;outlineConnect=0;fontColor=#232F3E;gradientColor=none;fillColor=#ED7100;strokeColor=none;dashed=0;verticalLabelPosition=bottom;verticalAlign=top;align=center;html=1;fontSize=12;fontStyle=0;aspect=fixed;pointerEvents=1;shape=mxgraph.aws4.container_registry_image;" parent="sq_Sm_KLbccSPEKtcpqH-23" vertex="1">
          <mxGeometry x="739" y="530" width="48" height="48" as="geometry" />
        </mxCell>
        <mxCell id="qX7h59sWBMEjEFQJi3sr-56" value="Product" style="text;html=1;align=center;verticalAlign=middle;whiteSpace=wrap;rounded=0;" parent="sq_Sm_KLbccSPEKtcpqH-23" vertex="1">
          <mxGeometry x="800" y="539" width="60" height="30" as="geometry" />
        </mxCell>
        <mxCell id="qX7h59sWBMEjEFQJi3sr-57" value="Subtract" style="labelPosition=center;verticalLabelPosition=middle;align=center;html=1;shape=mxgraph.basic.button;dx=10;whiteSpace=wrap;" parent="sq_Sm_KLbccSPEKtcpqH-23" vertex="1">
          <mxGeometry x="880" y="534" width="70" height="40" as="geometry" />
        </mxCell>
        <mxCell id="qX7h59sWBMEjEFQJi3sr-58" value="Add" style="labelPosition=center;verticalLabelPosition=middle;align=center;html=1;shape=mxgraph.basic.button;dx=10;whiteSpace=wrap;" parent="sq_Sm_KLbccSPEKtcpqH-23" vertex="1">
          <mxGeometry x="990" y="534" width="50" height="40" as="geometry" />
        </mxCell>
        <mxCell id="qX7h59sWBMEjEFQJi3sr-59" value="3" style="rounded=0;whiteSpace=wrap;html=1;" parent="sq_Sm_KLbccSPEKtcpqH-23" vertex="1">
          <mxGeometry x="960" y="544" width="20" height="20" as="geometry" />
        </mxCell>
        <mxCell id="qX7h59sWBMEjEFQJi3sr-60" value="X" style="ellipse;whiteSpace=wrap;html=1;" parent="sq_Sm_KLbccSPEKtcpqH-23" vertex="1">
          <mxGeometry x="1050" y="544" width="20" height="20" as="geometry" />
        </mxCell>
        <mxCell id="qX7h59sWBMEjEFQJi3sr-61" value="" style="sketch=0;outlineConnect=0;fontColor=#232F3E;gradientColor=none;fillColor=#ED7100;strokeColor=none;dashed=0;verticalLabelPosition=bottom;verticalAlign=top;align=center;html=1;fontSize=12;fontStyle=0;aspect=fixed;pointerEvents=1;shape=mxgraph.aws4.container_registry_image;" parent="sq_Sm_KLbccSPEKtcpqH-23" vertex="1">
          <mxGeometry x="739.5" y="600" width="48" height="48" as="geometry" />
        </mxCell>
        <mxCell id="qX7h59sWBMEjEFQJi3sr-62" value="Product" style="text;html=1;align=center;verticalAlign=middle;whiteSpace=wrap;rounded=0;" parent="sq_Sm_KLbccSPEKtcpqH-23" vertex="1">
          <mxGeometry x="800.5" y="609" width="60" height="30" as="geometry" />
        </mxCell>
        <mxCell id="qX7h59sWBMEjEFQJi3sr-63" value="Subtract" style="labelPosition=center;verticalLabelPosition=middle;align=center;html=1;shape=mxgraph.basic.button;dx=10;whiteSpace=wrap;" parent="sq_Sm_KLbccSPEKtcpqH-23" vertex="1">
          <mxGeometry x="880.5" y="604" width="70" height="40" as="geometry" />
        </mxCell>
        <mxCell id="qX7h59sWBMEjEFQJi3sr-64" value="Add" style="labelPosition=center;verticalLabelPosition=middle;align=center;html=1;shape=mxgraph.basic.button;dx=10;whiteSpace=wrap;" parent="sq_Sm_KLbccSPEKtcpqH-23" vertex="1">
          <mxGeometry x="990.5" y="604" width="50" height="40" as="geometry" />
        </mxCell>
        <mxCell id="qX7h59sWBMEjEFQJi3sr-65" value="3" style="rounded=0;whiteSpace=wrap;html=1;" parent="sq_Sm_KLbccSPEKtcpqH-23" vertex="1">
          <mxGeometry x="960.5" y="614" width="20" height="20" as="geometry" />
        </mxCell>
        <mxCell id="qX7h59sWBMEjEFQJi3sr-66" value="X" style="ellipse;whiteSpace=wrap;html=1;" parent="sq_Sm_KLbccSPEKtcpqH-23" vertex="1">
          <mxGeometry x="1050.5" y="614" width="20" height="20" as="geometry" />
        </mxCell>
        <mxCell id="qX7h59sWBMEjEFQJi3sr-67" value="" style="sketch=0;outlineConnect=0;fontColor=#232F3E;gradientColor=none;fillColor=#ED7100;strokeColor=none;dashed=0;verticalLabelPosition=bottom;verticalAlign=top;align=center;html=1;fontSize=12;fontStyle=0;aspect=fixed;pointerEvents=1;shape=mxgraph.aws4.container_registry_image;" parent="sq_Sm_KLbccSPEKtcpqH-23" vertex="1">
          <mxGeometry x="739.5" y="670" width="48" height="48" as="geometry" />
        </mxCell>
        <mxCell id="qX7h59sWBMEjEFQJi3sr-68" value="Product" style="text;html=1;align=center;verticalAlign=middle;whiteSpace=wrap;rounded=0;" parent="sq_Sm_KLbccSPEKtcpqH-23" vertex="1">
          <mxGeometry x="800.5" y="679" width="60" height="30" as="geometry" />
        </mxCell>
        <mxCell id="qX7h59sWBMEjEFQJi3sr-69" value="Subtract" style="labelPosition=center;verticalLabelPosition=middle;align=center;html=1;shape=mxgraph.basic.button;dx=10;whiteSpace=wrap;" parent="sq_Sm_KLbccSPEKtcpqH-23" vertex="1">
          <mxGeometry x="880.5" y="674" width="70" height="40" as="geometry" />
        </mxCell>
        <mxCell id="qX7h59sWBMEjEFQJi3sr-70" value="Add" style="labelPosition=center;verticalLabelPosition=middle;align=center;html=1;shape=mxgraph.basic.button;dx=10;whiteSpace=wrap;" parent="sq_Sm_KLbccSPEKtcpqH-23" vertex="1">
          <mxGeometry x="990.5" y="674" width="50" height="40" as="geometry" />
        </mxCell>
        <mxCell id="qX7h59sWBMEjEFQJi3sr-71" value="3" style="rounded=0;whiteSpace=wrap;html=1;" parent="sq_Sm_KLbccSPEKtcpqH-23" vertex="1">
          <mxGeometry x="960.5" y="684" width="20" height="20" as="geometry" />
        </mxCell>
        <mxCell id="qX7h59sWBMEjEFQJi3sr-72" value="X" style="ellipse;whiteSpace=wrap;html=1;" parent="sq_Sm_KLbccSPEKtcpqH-23" vertex="1">
          <mxGeometry x="1050.5" y="684" width="20" height="20" as="geometry" />
        </mxCell>
        <mxCell id="qX7h59sWBMEjEFQJi3sr-301" value="" style="rounded=0;whiteSpace=wrap;html=1;" parent="sq_Sm_KLbccSPEKtcpqH-23" vertex="1">
          <mxGeometry y="110" width="1220" height="60" as="geometry" />
        </mxCell>
        <mxCell id="qX7h59sWBMEjEFQJi3sr-302" value="" style="ellipse;whiteSpace=wrap;html=1;aspect=fixed;" parent="sq_Sm_KLbccSPEKtcpqH-23" vertex="1">
          <mxGeometry x="10" y="120" width="40" height="40" as="geometry" />
        </mxCell>
        <mxCell id="qX7h59sWBMEjEFQJi3sr-303" value="" style="rounded=1;whiteSpace=wrap;html=1;" parent="sq_Sm_KLbccSPEKtcpqH-23" vertex="1">
          <mxGeometry x="70" y="125" width="60" height="30" as="geometry" />
        </mxCell>
        <mxCell id="qX7h59sWBMEjEFQJi3sr-304" value="" style="rounded=1;whiteSpace=wrap;html=1;" parent="sq_Sm_KLbccSPEKtcpqH-23" vertex="1">
          <mxGeometry x="150" y="125" width="60" height="30" as="geometry" />
        </mxCell>
        <mxCell id="qX7h59sWBMEjEFQJi3sr-305" value="" style="rounded=1;whiteSpace=wrap;html=1;" parent="sq_Sm_KLbccSPEKtcpqH-23" vertex="1">
          <mxGeometry x="230" y="125" width="60" height="30" as="geometry" />
        </mxCell>
        <mxCell id="qX7h59sWBMEjEFQJi3sr-306" value="" style="sketch=0;pointerEvents=1;shadow=0;dashed=0;html=1;strokeColor=none;fillColor=#505050;labelPosition=center;verticalLabelPosition=bottom;verticalAlign=top;outlineConnect=0;align=center;shape=mxgraph.office.concepts.marketplace_shopping_bag;" parent="sq_Sm_KLbccSPEKtcpqH-23" vertex="1">
          <mxGeometry x="1171" y="125" width="30" height="30" as="geometry" />
        </mxCell>
        <mxCell id="qX7h59sWBMEjEFQJi3sr-81" value="" style="strokeWidth=1;shadow=0;dashed=0;align=center;html=1;shape=mxgraph.mockup.containers.browserWindow;rSize=0;strokeColor=#666666;strokeColor2=#008cff;strokeColor3=#c4c4c4;mainText=,;recursiveResize=0;" parent="1" vertex="1">
          <mxGeometry x="4410" y="105" width="1220" height="990" as="geometry" />
        </mxCell>
        <mxCell id="qX7h59sWBMEjEFQJi3sr-82" value="About" style="strokeWidth=1;shadow=0;dashed=0;align=center;html=1;shape=mxgraph.mockup.containers.anchor;fontSize=17;fontColor=#666666;align=left;whiteSpace=wrap;" parent="qX7h59sWBMEjEFQJi3sr-81" vertex="1">
          <mxGeometry x="60" y="12" width="110" height="26" as="geometry" />
        </mxCell>
        <mxCell id="qX7h59sWBMEjEFQJi3sr-83" value="https://www.draw.io" style="strokeWidth=1;shadow=0;dashed=0;align=center;html=1;shape=mxgraph.mockup.containers.anchor;rSize=0;fontSize=17;fontColor=#666666;align=left;" parent="qX7h59sWBMEjEFQJi3sr-81" vertex="1">
          <mxGeometry x="130" y="60" width="250" height="26" as="geometry" />
        </mxCell>
        <mxCell id="qX7h59sWBMEjEFQJi3sr-307" value="" style="rounded=0;whiteSpace=wrap;html=1;" parent="qX7h59sWBMEjEFQJi3sr-81" vertex="1">
          <mxGeometry y="115" width="1220" height="60" as="geometry" />
        </mxCell>
        <mxCell id="qX7h59sWBMEjEFQJi3sr-308" value="" style="ellipse;whiteSpace=wrap;html=1;aspect=fixed;" parent="qX7h59sWBMEjEFQJi3sr-81" vertex="1">
          <mxGeometry x="10" y="125" width="40" height="40" as="geometry" />
        </mxCell>
        <mxCell id="qX7h59sWBMEjEFQJi3sr-309" value="" style="rounded=1;whiteSpace=wrap;html=1;" parent="qX7h59sWBMEjEFQJi3sr-81" vertex="1">
          <mxGeometry x="70" y="130" width="60" height="30" as="geometry" />
        </mxCell>
        <mxCell id="qX7h59sWBMEjEFQJi3sr-310" value="" style="rounded=1;whiteSpace=wrap;html=1;" parent="qX7h59sWBMEjEFQJi3sr-81" vertex="1">
          <mxGeometry x="150" y="130" width="60" height="30" as="geometry" />
        </mxCell>
        <mxCell id="qX7h59sWBMEjEFQJi3sr-311" value="" style="rounded=1;whiteSpace=wrap;html=1;" parent="qX7h59sWBMEjEFQJi3sr-81" vertex="1">
          <mxGeometry x="230" y="130" width="60" height="30" as="geometry" />
        </mxCell>
        <mxCell id="qX7h59sWBMEjEFQJi3sr-312" value="" style="sketch=0;pointerEvents=1;shadow=0;dashed=0;html=1;strokeColor=none;fillColor=#505050;labelPosition=center;verticalLabelPosition=bottom;verticalAlign=top;outlineConnect=0;align=center;shape=mxgraph.office.concepts.marketplace_shopping_bag;" parent="qX7h59sWBMEjEFQJi3sr-81" vertex="1">
          <mxGeometry x="1171" y="130" width="30" height="30" as="geometry" />
        </mxCell>
        <mxCell id="qX7h59sWBMEjEFQJi3sr-327" value="In Progress" style="text;html=1;align=center;verticalAlign=middle;whiteSpace=wrap;rounded=0;fontSize=40;" parent="qX7h59sWBMEjEFQJi3sr-81" vertex="1">
          <mxGeometry x="460" y="460" width="300" height="70" as="geometry" />
        </mxCell>
        <mxCell id="qX7h59sWBMEjEFQJi3sr-141" value="" style="strokeWidth=1;shadow=0;dashed=0;align=center;html=1;shape=mxgraph.mockup.containers.browserWindow;rSize=0;strokeColor=#666666;strokeColor2=#008cff;strokeColor3=#c4c4c4;mainText=,;recursiveResize=0;" parent="1" vertex="1">
          <mxGeometry x="2760" y="1150" width="1220" height="990" as="geometry" />
        </mxCell>
        <mxCell id="qX7h59sWBMEjEFQJi3sr-142" value="Order" style="strokeWidth=1;shadow=0;dashed=0;align=center;html=1;shape=mxgraph.mockup.containers.anchor;fontSize=17;fontColor=#666666;align=left;whiteSpace=wrap;" parent="qX7h59sWBMEjEFQJi3sr-141" vertex="1">
          <mxGeometry x="60" y="12" width="110" height="26" as="geometry" />
        </mxCell>
        <mxCell id="qX7h59sWBMEjEFQJi3sr-143" value="https://www.draw.io" style="strokeWidth=1;shadow=0;dashed=0;align=center;html=1;shape=mxgraph.mockup.containers.anchor;rSize=0;fontSize=17;fontColor=#666666;align=left;" parent="qX7h59sWBMEjEFQJi3sr-141" vertex="1">
          <mxGeometry x="130" y="60" width="250" height="26" as="geometry" />
        </mxCell>
        <mxCell id="qX7h59sWBMEjEFQJi3sr-149" value="" style="strokeWidth=1;shadow=0;dashed=0;align=center;html=1;shape=mxgraph.mockup.forms.rrect;rSize=0;strokeColor=#999999;fillColor=#ffffff;" parent="qX7h59sWBMEjEFQJi3sr-141" vertex="1">
          <mxGeometry x="170" y="290" width="270" height="480" as="geometry" />
        </mxCell>
        <mxCell id="qX7h59sWBMEjEFQJi3sr-150" value="Cardholder Name" style="strokeWidth=1;shadow=0;dashed=0;align=center;html=1;shape=mxgraph.mockup.forms.anchor;fontSize=12;fontColor=#666666;align=left;resizeWidth=1;spacingLeft=0;" parent="qX7h59sWBMEjEFQJi3sr-149" vertex="1">
          <mxGeometry width="135" height="20" relative="1" as="geometry">
            <mxPoint x="10" y="230" as="offset" />
          </mxGeometry>
        </mxCell>
        <mxCell id="qX7h59sWBMEjEFQJi3sr-151" value="johndoe" style="strokeWidth=1;shadow=0;dashed=0;align=center;html=1;shape=mxgraph.mockup.forms.rrect;rSize=0;strokeColor=#999999;fontColor=#666666;align=left;spacingLeft=5;resizeWidth=1;" parent="qX7h59sWBMEjEFQJi3sr-149" vertex="1">
          <mxGeometry width="202.5" height="25" relative="1" as="geometry">
            <mxPoint x="10" y="250" as="offset" />
          </mxGeometry>
        </mxCell>
        <mxCell id="qX7h59sWBMEjEFQJi3sr-152" value="Address Line 1" style="strokeWidth=1;shadow=0;dashed=0;align=center;html=1;shape=mxgraph.mockup.forms.anchor;fontSize=12;fontColor=#666666;align=left;resizeWidth=1;spacingLeft=0;" parent="qX7h59sWBMEjEFQJi3sr-149" vertex="1">
          <mxGeometry width="135" height="20" relative="1" as="geometry">
            <mxPoint x="10" y="10" as="offset" />
          </mxGeometry>
        </mxCell>
        <mxCell id="qX7h59sWBMEjEFQJi3sr-153" value="3 O Connel St" style="strokeWidth=1;shadow=0;dashed=0;align=center;html=1;shape=mxgraph.mockup.forms.rrect;rSize=0;strokeColor=#999999;fontColor=#666666;align=left;spacingLeft=5;resizeWidth=1;" parent="qX7h59sWBMEjEFQJi3sr-149" vertex="1">
          <mxGeometry width="202.5" height="20" relative="1" as="geometry">
            <mxPoint x="10" y="30" as="offset" />
          </mxGeometry>
        </mxCell>
        <mxCell id="qX7h59sWBMEjEFQJi3sr-154" value="Confirm" style="strokeWidth=1;shadow=0;dashed=0;align=center;html=1;shape=mxgraph.mockup.forms.rrect;rSize=5;strokeColor=none;fontColor=#ffffff;fillColor=#66bbff;fontSize=16;fontStyle=1;" parent="qX7h59sWBMEjEFQJi3sr-149" vertex="1">
          <mxGeometry y="1" width="120" height="30" relative="1" as="geometry">
            <mxPoint x="130" y="-50" as="offset" />
          </mxGeometry>
        </mxCell>
        <mxCell id="qX7h59sWBMEjEFQJi3sr-155" value="Address Line 2" style="strokeWidth=1;shadow=0;dashed=0;align=center;html=1;shape=mxgraph.mockup.forms.anchor;fontSize=12;fontColor=#666666;align=left;resizeWidth=1;spacingLeft=0;" parent="qX7h59sWBMEjEFQJi3sr-149" vertex="1">
          <mxGeometry x="10" y="50" width="135" height="20" as="geometry" />
        </mxCell>
        <mxCell id="qX7h59sWBMEjEFQJi3sr-156" value="Dublin City" style="strokeWidth=1;shadow=0;dashed=0;align=center;html=1;shape=mxgraph.mockup.forms.rrect;rSize=0;strokeColor=#999999;fontColor=#666666;align=left;spacingLeft=5;resizeWidth=1;" parent="qX7h59sWBMEjEFQJi3sr-149" vertex="1">
          <mxGeometry x="10" y="70" width="202.5" height="20" as="geometry" />
        </mxCell>
        <mxCell id="qX7h59sWBMEjEFQJi3sr-157" value="City" style="strokeWidth=1;shadow=0;dashed=0;align=center;html=1;shape=mxgraph.mockup.forms.anchor;fontSize=12;fontColor=#666666;align=left;resizeWidth=1;spacingLeft=0;" parent="qX7h59sWBMEjEFQJi3sr-149" vertex="1">
          <mxGeometry x="10" y="90" width="135" height="16.84" as="geometry" />
        </mxCell>
        <mxCell id="qX7h59sWBMEjEFQJi3sr-158" value="Dublin" style="strokeWidth=1;shadow=0;dashed=0;align=center;html=1;shape=mxgraph.mockup.forms.rrect;rSize=0;strokeColor=#999999;fontColor=#666666;align=left;spacingLeft=5;resizeWidth=1;" parent="qX7h59sWBMEjEFQJi3sr-149" vertex="1">
          <mxGeometry x="10" y="106.84" width="202.5" height="23.16" as="geometry" />
        </mxCell>
        <mxCell id="qX7h59sWBMEjEFQJi3sr-159" value="County" style="strokeWidth=1;shadow=0;dashed=0;align=center;html=1;shape=mxgraph.mockup.forms.anchor;fontSize=12;fontColor=#666666;align=left;resizeWidth=1;spacingLeft=0;" parent="qX7h59sWBMEjEFQJi3sr-149" vertex="1">
          <mxGeometry x="10" y="130" width="135" height="20" as="geometry" />
        </mxCell>
        <mxCell id="qX7h59sWBMEjEFQJi3sr-160" value="Dublin" style="strokeWidth=1;shadow=0;dashed=0;align=center;html=1;shape=mxgraph.mockup.forms.rrect;rSize=0;strokeColor=#999999;fontColor=#666666;align=left;spacingLeft=5;resizeWidth=1;" parent="qX7h59sWBMEjEFQJi3sr-149" vertex="1">
          <mxGeometry x="10" y="150" width="202.5" height="26.32" as="geometry" />
        </mxCell>
        <mxCell id="qX7h59sWBMEjEFQJi3sr-161" value="Eircode" style="strokeWidth=1;shadow=0;dashed=0;align=center;html=1;shape=mxgraph.mockup.forms.anchor;fontSize=12;fontColor=#666666;align=left;resizeWidth=1;spacingLeft=0;" parent="qX7h59sWBMEjEFQJi3sr-149" vertex="1">
          <mxGeometry x="10" y="176.32" width="135" height="23.68" as="geometry" />
        </mxCell>
        <mxCell id="qX7h59sWBMEjEFQJi3sr-162" value="K92LK11" style="strokeWidth=1;shadow=0;dashed=0;align=center;html=1;shape=mxgraph.mockup.forms.rrect;rSize=0;strokeColor=#999999;fontColor=#666666;align=left;spacingLeft=5;resizeWidth=1;" parent="qX7h59sWBMEjEFQJi3sr-149" vertex="1">
          <mxGeometry x="10" y="201.58" width="202.5" height="28.42" as="geometry" />
        </mxCell>
        <mxCell id="qX7h59sWBMEjEFQJi3sr-202" value="Back to Order" style="strokeWidth=1;shadow=0;dashed=0;align=center;html=1;shape=mxgraph.mockup.forms.rrect;rSize=5;strokeColor=none;fontColor=#ffffff;fillColor=#66bbff;fontSize=16;fontStyle=1;" parent="qX7h59sWBMEjEFQJi3sr-149" vertex="1">
          <mxGeometry x="10" y="430" width="110" height="30" as="geometry" />
        </mxCell>
        <mxCell id="qX7h59sWBMEjEFQJi3sr-212" value="Card Number" style="strokeWidth=1;shadow=0;dashed=0;align=center;html=1;shape=mxgraph.mockup.forms.anchor;fontSize=12;fontColor=#666666;align=left;resizeWidth=1;spacingLeft=0;" parent="qX7h59sWBMEjEFQJi3sr-149" vertex="1">
          <mxGeometry x="10" y="280" width="135" height="20" as="geometry" />
        </mxCell>
        <mxCell id="qX7h59sWBMEjEFQJi3sr-213" value="33556233423566" style="strokeWidth=1;shadow=0;dashed=0;align=center;html=1;shape=mxgraph.mockup.forms.rrect;rSize=0;strokeColor=#999999;fontColor=#666666;align=left;spacingLeft=5;resizeWidth=1;" parent="qX7h59sWBMEjEFQJi3sr-149" vertex="1">
          <mxGeometry x="10" y="300" width="202.5" height="25" as="geometry" />
        </mxCell>
        <mxCell id="qX7h59sWBMEjEFQJi3sr-214" value="CVV" style="strokeWidth=1;shadow=0;dashed=0;align=center;html=1;shape=mxgraph.mockup.forms.anchor;fontSize=12;fontColor=#666666;align=left;resizeWidth=1;spacingLeft=0;" parent="qX7h59sWBMEjEFQJi3sr-149" vertex="1">
          <mxGeometry x="10" y="325" width="135" height="20" as="geometry" />
        </mxCell>
        <mxCell id="qX7h59sWBMEjEFQJi3sr-215" value="333" style="strokeWidth=1;shadow=0;dashed=0;align=center;html=1;shape=mxgraph.mockup.forms.rrect;rSize=0;strokeColor=#999999;fontColor=#666666;align=left;spacingLeft=5;resizeWidth=1;" parent="qX7h59sWBMEjEFQJi3sr-149" vertex="1">
          <mxGeometry x="10" y="345" width="202.5" height="25" as="geometry" />
        </mxCell>
        <mxCell id="qX7h59sWBMEjEFQJi3sr-163" value="&lt;h1 style=&quot;margin-top: 0px;&quot;&gt;Billing Information&lt;/h1&gt;" style="text;html=1;whiteSpace=wrap;overflow=hidden;rounded=0;" parent="qX7h59sWBMEjEFQJi3sr-141" vertex="1">
          <mxGeometry x="170" y="250" width="230" height="40" as="geometry" />
        </mxCell>
        <mxCell id="qX7h59sWBMEjEFQJi3sr-164" value="" style="rounded=0;whiteSpace=wrap;html=1;" parent="qX7h59sWBMEjEFQJi3sr-141" vertex="1">
          <mxGeometry x="720" y="290" width="370" height="470" as="geometry" />
        </mxCell>
        <mxCell id="qX7h59sWBMEjEFQJi3sr-165" value="" style="sketch=0;outlineConnect=0;fontColor=#232F3E;gradientColor=none;fillColor=#ED7100;strokeColor=none;dashed=0;verticalLabelPosition=bottom;verticalAlign=top;align=center;html=1;fontSize=12;fontStyle=0;aspect=fixed;pointerEvents=1;shape=mxgraph.aws4.container_registry_image;" parent="qX7h59sWBMEjEFQJi3sr-141" vertex="1">
          <mxGeometry x="739" y="326" width="48" height="48" as="geometry" />
        </mxCell>
        <mxCell id="qX7h59sWBMEjEFQJi3sr-166" value="Product" style="text;html=1;align=center;verticalAlign=middle;whiteSpace=wrap;rounded=0;" parent="qX7h59sWBMEjEFQJi3sr-141" vertex="1">
          <mxGeometry x="800" y="335" width="60" height="30" as="geometry" />
        </mxCell>
        <mxCell id="qX7h59sWBMEjEFQJi3sr-167" value="Subtract" style="labelPosition=center;verticalLabelPosition=middle;align=center;html=1;shape=mxgraph.basic.button;dx=10;whiteSpace=wrap;" parent="qX7h59sWBMEjEFQJi3sr-141" vertex="1">
          <mxGeometry x="880" y="330" width="70" height="40" as="geometry" />
        </mxCell>
        <mxCell id="qX7h59sWBMEjEFQJi3sr-168" value="Add" style="labelPosition=center;verticalLabelPosition=middle;align=center;html=1;shape=mxgraph.basic.button;dx=10;whiteSpace=wrap;" parent="qX7h59sWBMEjEFQJi3sr-141" vertex="1">
          <mxGeometry x="990" y="330" width="50" height="40" as="geometry" />
        </mxCell>
        <mxCell id="qX7h59sWBMEjEFQJi3sr-169" value="3" style="rounded=0;whiteSpace=wrap;html=1;" parent="qX7h59sWBMEjEFQJi3sr-141" vertex="1">
          <mxGeometry x="960" y="340" width="20" height="20" as="geometry" />
        </mxCell>
        <mxCell id="qX7h59sWBMEjEFQJi3sr-170" value="X" style="ellipse;whiteSpace=wrap;html=1;" parent="qX7h59sWBMEjEFQJi3sr-141" vertex="1">
          <mxGeometry x="1050" y="340" width="20" height="20" as="geometry" />
        </mxCell>
        <mxCell id="qX7h59sWBMEjEFQJi3sr-171" value="" style="sketch=0;outlineConnect=0;fontColor=#232F3E;gradientColor=none;fillColor=#ED7100;strokeColor=none;dashed=0;verticalLabelPosition=bottom;verticalAlign=top;align=center;html=1;fontSize=12;fontStyle=0;aspect=fixed;pointerEvents=1;shape=mxgraph.aws4.container_registry_image;" parent="qX7h59sWBMEjEFQJi3sr-141" vertex="1">
          <mxGeometry x="739" y="390" width="48" height="48" as="geometry" />
        </mxCell>
        <mxCell id="qX7h59sWBMEjEFQJi3sr-172" value="Product" style="text;html=1;align=center;verticalAlign=middle;whiteSpace=wrap;rounded=0;" parent="qX7h59sWBMEjEFQJi3sr-141" vertex="1">
          <mxGeometry x="800" y="399" width="60" height="30" as="geometry" />
        </mxCell>
        <mxCell id="qX7h59sWBMEjEFQJi3sr-173" value="Subtract" style="labelPosition=center;verticalLabelPosition=middle;align=center;html=1;shape=mxgraph.basic.button;dx=10;whiteSpace=wrap;" parent="qX7h59sWBMEjEFQJi3sr-141" vertex="1">
          <mxGeometry x="880" y="394" width="70" height="40" as="geometry" />
        </mxCell>
        <mxCell id="qX7h59sWBMEjEFQJi3sr-174" value="Add" style="labelPosition=center;verticalLabelPosition=middle;align=center;html=1;shape=mxgraph.basic.button;dx=10;whiteSpace=wrap;" parent="qX7h59sWBMEjEFQJi3sr-141" vertex="1">
          <mxGeometry x="990" y="394" width="50" height="40" as="geometry" />
        </mxCell>
        <mxCell id="qX7h59sWBMEjEFQJi3sr-175" value="3" style="rounded=0;whiteSpace=wrap;html=1;" parent="qX7h59sWBMEjEFQJi3sr-141" vertex="1">
          <mxGeometry x="960" y="404" width="20" height="20" as="geometry" />
        </mxCell>
        <mxCell id="qX7h59sWBMEjEFQJi3sr-176" value="X" style="ellipse;whiteSpace=wrap;html=1;" parent="qX7h59sWBMEjEFQJi3sr-141" vertex="1">
          <mxGeometry x="1050" y="404" width="20" height="20" as="geometry" />
        </mxCell>
        <mxCell id="qX7h59sWBMEjEFQJi3sr-177" value="" style="sketch=0;outlineConnect=0;fontColor=#232F3E;gradientColor=none;fillColor=#ED7100;strokeColor=none;dashed=0;verticalLabelPosition=bottom;verticalAlign=top;align=center;html=1;fontSize=12;fontStyle=0;aspect=fixed;pointerEvents=1;shape=mxgraph.aws4.container_registry_image;" parent="qX7h59sWBMEjEFQJi3sr-141" vertex="1">
          <mxGeometry x="739" y="460" width="48" height="48" as="geometry" />
        </mxCell>
        <mxCell id="qX7h59sWBMEjEFQJi3sr-178" value="Product" style="text;html=1;align=center;verticalAlign=middle;whiteSpace=wrap;rounded=0;" parent="qX7h59sWBMEjEFQJi3sr-141" vertex="1">
          <mxGeometry x="800" y="469" width="60" height="30" as="geometry" />
        </mxCell>
        <mxCell id="qX7h59sWBMEjEFQJi3sr-179" value="Subtract" style="labelPosition=center;verticalLabelPosition=middle;align=center;html=1;shape=mxgraph.basic.button;dx=10;whiteSpace=wrap;" parent="qX7h59sWBMEjEFQJi3sr-141" vertex="1">
          <mxGeometry x="880" y="464" width="70" height="40" as="geometry" />
        </mxCell>
        <mxCell id="qX7h59sWBMEjEFQJi3sr-180" value="Add" style="labelPosition=center;verticalLabelPosition=middle;align=center;html=1;shape=mxgraph.basic.button;dx=10;whiteSpace=wrap;" parent="qX7h59sWBMEjEFQJi3sr-141" vertex="1">
          <mxGeometry x="990" y="464" width="50" height="40" as="geometry" />
        </mxCell>
        <mxCell id="qX7h59sWBMEjEFQJi3sr-181" value="3" style="rounded=0;whiteSpace=wrap;html=1;" parent="qX7h59sWBMEjEFQJi3sr-141" vertex="1">
          <mxGeometry x="960" y="474" width="20" height="20" as="geometry" />
        </mxCell>
        <mxCell id="qX7h59sWBMEjEFQJi3sr-182" value="X" style="ellipse;whiteSpace=wrap;html=1;" parent="qX7h59sWBMEjEFQJi3sr-141" vertex="1">
          <mxGeometry x="1050" y="474" width="20" height="20" as="geometry" />
        </mxCell>
        <mxCell id="qX7h59sWBMEjEFQJi3sr-183" value="" style="sketch=0;outlineConnect=0;fontColor=#232F3E;gradientColor=none;fillColor=#ED7100;strokeColor=none;dashed=0;verticalLabelPosition=bottom;verticalAlign=top;align=center;html=1;fontSize=12;fontStyle=0;aspect=fixed;pointerEvents=1;shape=mxgraph.aws4.container_registry_image;" parent="qX7h59sWBMEjEFQJi3sr-141" vertex="1">
          <mxGeometry x="739" y="530" width="48" height="48" as="geometry" />
        </mxCell>
        <mxCell id="qX7h59sWBMEjEFQJi3sr-184" value="Product" style="text;html=1;align=center;verticalAlign=middle;whiteSpace=wrap;rounded=0;" parent="qX7h59sWBMEjEFQJi3sr-141" vertex="1">
          <mxGeometry x="800" y="539" width="60" height="30" as="geometry" />
        </mxCell>
        <mxCell id="qX7h59sWBMEjEFQJi3sr-185" value="Subtract" style="labelPosition=center;verticalLabelPosition=middle;align=center;html=1;shape=mxgraph.basic.button;dx=10;whiteSpace=wrap;" parent="qX7h59sWBMEjEFQJi3sr-141" vertex="1">
          <mxGeometry x="880" y="534" width="70" height="40" as="geometry" />
        </mxCell>
        <mxCell id="qX7h59sWBMEjEFQJi3sr-186" value="Add" style="labelPosition=center;verticalLabelPosition=middle;align=center;html=1;shape=mxgraph.basic.button;dx=10;whiteSpace=wrap;" parent="qX7h59sWBMEjEFQJi3sr-141" vertex="1">
          <mxGeometry x="990" y="534" width="50" height="40" as="geometry" />
        </mxCell>
        <mxCell id="qX7h59sWBMEjEFQJi3sr-187" value="3" style="rounded=0;whiteSpace=wrap;html=1;" parent="qX7h59sWBMEjEFQJi3sr-141" vertex="1">
          <mxGeometry x="960" y="544" width="20" height="20" as="geometry" />
        </mxCell>
        <mxCell id="qX7h59sWBMEjEFQJi3sr-188" value="X" style="ellipse;whiteSpace=wrap;html=1;" parent="qX7h59sWBMEjEFQJi3sr-141" vertex="1">
          <mxGeometry x="1050" y="544" width="20" height="20" as="geometry" />
        </mxCell>
        <mxCell id="qX7h59sWBMEjEFQJi3sr-189" value="" style="sketch=0;outlineConnect=0;fontColor=#232F3E;gradientColor=none;fillColor=#ED7100;strokeColor=none;dashed=0;verticalLabelPosition=bottom;verticalAlign=top;align=center;html=1;fontSize=12;fontStyle=0;aspect=fixed;pointerEvents=1;shape=mxgraph.aws4.container_registry_image;" parent="qX7h59sWBMEjEFQJi3sr-141" vertex="1">
          <mxGeometry x="739.5" y="600" width="48" height="48" as="geometry" />
        </mxCell>
        <mxCell id="qX7h59sWBMEjEFQJi3sr-190" value="Product" style="text;html=1;align=center;verticalAlign=middle;whiteSpace=wrap;rounded=0;" parent="qX7h59sWBMEjEFQJi3sr-141" vertex="1">
          <mxGeometry x="800.5" y="609" width="60" height="30" as="geometry" />
        </mxCell>
        <mxCell id="qX7h59sWBMEjEFQJi3sr-191" value="Subtract" style="labelPosition=center;verticalLabelPosition=middle;align=center;html=1;shape=mxgraph.basic.button;dx=10;whiteSpace=wrap;" parent="qX7h59sWBMEjEFQJi3sr-141" vertex="1">
          <mxGeometry x="880.5" y="604" width="70" height="40" as="geometry" />
        </mxCell>
        <mxCell id="qX7h59sWBMEjEFQJi3sr-192" value="Add" style="labelPosition=center;verticalLabelPosition=middle;align=center;html=1;shape=mxgraph.basic.button;dx=10;whiteSpace=wrap;" parent="qX7h59sWBMEjEFQJi3sr-141" vertex="1">
          <mxGeometry x="990.5" y="604" width="50" height="40" as="geometry" />
        </mxCell>
        <mxCell id="qX7h59sWBMEjEFQJi3sr-193" value="3" style="rounded=0;whiteSpace=wrap;html=1;" parent="qX7h59sWBMEjEFQJi3sr-141" vertex="1">
          <mxGeometry x="960.5" y="614" width="20" height="20" as="geometry" />
        </mxCell>
        <mxCell id="qX7h59sWBMEjEFQJi3sr-194" value="X" style="ellipse;whiteSpace=wrap;html=1;" parent="qX7h59sWBMEjEFQJi3sr-141" vertex="1">
          <mxGeometry x="1050.5" y="614" width="20" height="20" as="geometry" />
        </mxCell>
        <mxCell id="qX7h59sWBMEjEFQJi3sr-195" value="" style="sketch=0;outlineConnect=0;fontColor=#232F3E;gradientColor=none;fillColor=#ED7100;strokeColor=none;dashed=0;verticalLabelPosition=bottom;verticalAlign=top;align=center;html=1;fontSize=12;fontStyle=0;aspect=fixed;pointerEvents=1;shape=mxgraph.aws4.container_registry_image;" parent="qX7h59sWBMEjEFQJi3sr-141" vertex="1">
          <mxGeometry x="739.5" y="670" width="48" height="48" as="geometry" />
        </mxCell>
        <mxCell id="qX7h59sWBMEjEFQJi3sr-196" value="Product" style="text;html=1;align=center;verticalAlign=middle;whiteSpace=wrap;rounded=0;" parent="qX7h59sWBMEjEFQJi3sr-141" vertex="1">
          <mxGeometry x="800.5" y="679" width="60" height="30" as="geometry" />
        </mxCell>
        <mxCell id="qX7h59sWBMEjEFQJi3sr-197" value="Subtract" style="labelPosition=center;verticalLabelPosition=middle;align=center;html=1;shape=mxgraph.basic.button;dx=10;whiteSpace=wrap;" parent="qX7h59sWBMEjEFQJi3sr-141" vertex="1">
          <mxGeometry x="880.5" y="674" width="70" height="40" as="geometry" />
        </mxCell>
        <mxCell id="qX7h59sWBMEjEFQJi3sr-198" value="Add" style="labelPosition=center;verticalLabelPosition=middle;align=center;html=1;shape=mxgraph.basic.button;dx=10;whiteSpace=wrap;" parent="qX7h59sWBMEjEFQJi3sr-141" vertex="1">
          <mxGeometry x="990.5" y="674" width="50" height="40" as="geometry" />
        </mxCell>
        <mxCell id="qX7h59sWBMEjEFQJi3sr-199" value="3" style="rounded=0;whiteSpace=wrap;html=1;" parent="qX7h59sWBMEjEFQJi3sr-141" vertex="1">
          <mxGeometry x="960.5" y="684" width="20" height="20" as="geometry" />
        </mxCell>
        <mxCell id="qX7h59sWBMEjEFQJi3sr-200" value="X" style="ellipse;whiteSpace=wrap;html=1;" parent="qX7h59sWBMEjEFQJi3sr-141" vertex="1">
          <mxGeometry x="1050.5" y="684" width="20" height="20" as="geometry" />
        </mxCell>
        <mxCell id="qX7h59sWBMEjEFQJi3sr-201" value="" style="rounded=0;whiteSpace=wrap;html=1;opacity=50;fillColor=#B4B4B4;" parent="qX7h59sWBMEjEFQJi3sr-141" vertex="1">
          <mxGeometry x="720" y="290" width="370" height="470" as="geometry" />
        </mxCell>
        <mxCell id="qX7h59sWBMEjEFQJi3sr-313" value="" style="rounded=0;whiteSpace=wrap;html=1;" parent="qX7h59sWBMEjEFQJi3sr-141" vertex="1">
          <mxGeometry y="110" width="1220" height="60" as="geometry" />
        </mxCell>
        <mxCell id="qX7h59sWBMEjEFQJi3sr-314" value="" style="ellipse;whiteSpace=wrap;html=1;aspect=fixed;" parent="qX7h59sWBMEjEFQJi3sr-141" vertex="1">
          <mxGeometry x="10" y="120" width="40" height="40" as="geometry" />
        </mxCell>
        <mxCell id="qX7h59sWBMEjEFQJi3sr-315" value="" style="rounded=1;whiteSpace=wrap;html=1;" parent="qX7h59sWBMEjEFQJi3sr-141" vertex="1">
          <mxGeometry x="70" y="125" width="60" height="30" as="geometry" />
        </mxCell>
        <mxCell id="qX7h59sWBMEjEFQJi3sr-316" value="" style="rounded=1;whiteSpace=wrap;html=1;" parent="qX7h59sWBMEjEFQJi3sr-141" vertex="1">
          <mxGeometry x="150" y="125" width="60" height="30" as="geometry" />
        </mxCell>
        <mxCell id="qX7h59sWBMEjEFQJi3sr-317" value="" style="rounded=1;whiteSpace=wrap;html=1;" parent="qX7h59sWBMEjEFQJi3sr-141" vertex="1">
          <mxGeometry x="230" y="125" width="60" height="30" as="geometry" />
        </mxCell>
        <mxCell id="qX7h59sWBMEjEFQJi3sr-318" value="" style="sketch=0;pointerEvents=1;shadow=0;dashed=0;html=1;strokeColor=none;fillColor=#505050;labelPosition=center;verticalLabelPosition=bottom;verticalAlign=top;outlineConnect=0;align=center;shape=mxgraph.office.concepts.marketplace_shopping_bag;" parent="qX7h59sWBMEjEFQJi3sr-141" vertex="1">
          <mxGeometry x="1171" y="125" width="30" height="30" as="geometry" />
        </mxCell>
        <mxCell id="qX7h59sWBMEjEFQJi3sr-203" value="" style="endArrow=classic;html=1;rounded=0;entryX=0.198;entryY=0.001;entryDx=0;entryDy=0;entryPerimeter=0;strokeWidth=2;strokeColor=#00BE00;" parent="1" source="sq_Sm_KLbccSPEKtcpqH-57" target="qX7h59sWBMEjEFQJi3sr-141" edge="1">
          <mxGeometry width="50" height="50" relative="1" as="geometry">
            <mxPoint x="3350" y="980" as="sourcePoint" />
            <mxPoint x="3400" y="930" as="targetPoint" />
          </mxGeometry>
        </mxCell>
        <mxCell id="qX7h59sWBMEjEFQJi3sr-204" value="" style="endArrow=none;html=1;rounded=0;entryX=1.041;entryY=0.061;entryDx=0;entryDy=0;entryPerimeter=0;strokeWidth=2;strokeColor=#007FFF;" parent="1" target="qX7h59sWBMEjEFQJi3sr-39" edge="1">
          <mxGeometry width="50" height="50" relative="1" as="geometry">
            <mxPoint x="4080" y="320" as="sourcePoint" />
            <mxPoint x="3400" y="650" as="targetPoint" />
          </mxGeometry>
        </mxCell>
        <mxCell id="qX7h59sWBMEjEFQJi3sr-205" value="Subtract from quantity" style="text;html=1;align=center;verticalAlign=middle;whiteSpace=wrap;rounded=0;fontSize=15;fontStyle=1" parent="1" vertex="1">
          <mxGeometry x="4080" y="300" width="180" height="50" as="geometry" />
        </mxCell>
        <mxCell id="qX7h59sWBMEjEFQJi3sr-206" value="" style="endArrow=none;html=1;rounded=0;entryX=1.086;entryY=0.096;entryDx=0;entryDy=0;entryPerimeter=0;strokeWidth=2;strokeColor=#007FFF;" parent="1" target="qX7h59sWBMEjEFQJi3sr-40" edge="1">
          <mxGeometry width="50" height="50" relative="1" as="geometry">
            <mxPoint x="4087" y="390" as="sourcePoint" />
            <mxPoint x="3720" y="512" as="targetPoint" />
          </mxGeometry>
        </mxCell>
        <mxCell id="qX7h59sWBMEjEFQJi3sr-207" value="Add to quantity" style="text;html=1;align=center;verticalAlign=middle;whiteSpace=wrap;rounded=0;fontSize=15;fontStyle=1" parent="1" vertex="1">
          <mxGeometry x="4087" y="370" width="130" height="50" as="geometry" />
        </mxCell>
        <mxCell id="qX7h59sWBMEjEFQJi3sr-208" value="" style="endArrow=none;html=1;rounded=0;entryX=1;entryY=0.5;entryDx=0;entryDy=0;strokeWidth=2;strokeColor=#007FFF;" parent="1" target="qX7h59sWBMEjEFQJi3sr-42" edge="1">
          <mxGeometry width="50" height="50" relative="1" as="geometry">
            <mxPoint x="4093" y="450" as="sourcePoint" />
            <mxPoint x="3810" y="504" as="targetPoint" />
          </mxGeometry>
        </mxCell>
        <mxCell id="qX7h59sWBMEjEFQJi3sr-209" value="Delete line item" style="text;html=1;align=center;verticalAlign=middle;whiteSpace=wrap;rounded=0;fontSize=15;fontStyle=1" parent="1" vertex="1">
          <mxGeometry x="4093" y="430" width="130" height="50" as="geometry" />
        </mxCell>
        <mxCell id="qX7h59sWBMEjEFQJi3sr-210" value="Clicking on Continue to Payment will make Js change the form to the payment form. Also the order on the right will be disabled" style="text;html=1;align=center;verticalAlign=middle;whiteSpace=wrap;rounded=0;fontSize=15;fontStyle=1" parent="1" vertex="1">
          <mxGeometry x="4020" y="690" width="247" height="170" as="geometry" />
        </mxCell>
        <mxCell id="qX7h59sWBMEjEFQJi3sr-211" value="" style="endArrow=none;html=1;rounded=0;entryX=1.005;entryY=0.758;entryDx=0;entryDy=0;strokeWidth=2;strokeColor=#007FFF;entryPerimeter=0;exitX=0;exitY=0.5;exitDx=0;exitDy=0;" parent="1" source="qX7h59sWBMEjEFQJi3sr-210" target="sq_Sm_KLbccSPEKtcpqH-57" edge="1">
          <mxGeometry width="50" height="50" relative="1" as="geometry">
            <mxPoint x="4103" y="460" as="sourcePoint" />
            <mxPoint x="3840" y="470" as="targetPoint" />
          </mxGeometry>
        </mxCell>
        <mxCell id="qX7h59sWBMEjEFQJi3sr-216" value="Clicking on Confirm will validate the form and make a Thank you for your order message appear as well as empty the users cart" style="text;html=1;align=center;verticalAlign=middle;whiteSpace=wrap;rounded=0;fontSize=15;fontStyle=1" parent="1" vertex="1">
          <mxGeometry x="4028.5" y="2020" width="247" height="60" as="geometry" />
        </mxCell>
        <mxCell id="qX7h59sWBMEjEFQJi3sr-217" value="" style="endArrow=none;html=1;rounded=0;entryX=1.005;entryY=0.758;entryDx=0;entryDy=0;strokeWidth=2;strokeColor=#007FFF;entryPerimeter=0;exitX=0;exitY=0.5;exitDx=0;exitDy=0;" parent="1" source="qX7h59sWBMEjEFQJi3sr-216" edge="1">
          <mxGeometry width="50" height="50" relative="1" as="geometry">
            <mxPoint x="4092" y="1600" as="sourcePoint" />
            <mxPoint x="3180" y="1883" as="targetPoint" />
          </mxGeometry>
        </mxCell>
        <mxCell id="qX7h59sWBMEjEFQJi3sr-218" value="Clicking on Back to Order will bring user back to previous form and enable the cart to be editable" style="text;html=1;align=center;verticalAlign=middle;whiteSpace=wrap;rounded=0;fontSize=15;fontStyle=1" parent="1" vertex="1">
          <mxGeometry x="4028.5" y="2120" width="247" height="80" as="geometry" />
        </mxCell>
        <mxCell id="qX7h59sWBMEjEFQJi3sr-219" value="" style="endArrow=none;html=1;rounded=0;entryX=0.891;entryY=1;entryDx=0;entryDy=0;strokeWidth=2;strokeColor=#007FFF;entryPerimeter=0;exitX=0;exitY=0.5;exitDx=0;exitDy=0;" parent="1" source="qX7h59sWBMEjEFQJi3sr-218" target="qX7h59sWBMEjEFQJi3sr-202" edge="1">
          <mxGeometry width="50" height="50" relative="1" as="geometry">
            <mxPoint x="4102" y="1737" as="sourcePoint" />
            <mxPoint x="3190" y="2020" as="targetPoint" />
          </mxGeometry>
        </mxCell>
        <mxCell id="qX7h59sWBMEjEFQJi3sr-220" value="" style="endArrow=classic;html=1;rounded=0;strokeWidth=2;strokeColor=#00BE00;exitX=0.255;exitY=0.067;exitDx=0;exitDy=0;exitPerimeter=0;" parent="1" source="qX7h59sWBMEjEFQJi3sr-202" target="sq_Sm_KLbccSPEKtcpqH-23" edge="1">
          <mxGeometry width="50" height="50" relative="1" as="geometry">
            <mxPoint x="2869" y="1930" as="sourcePoint" />
            <mxPoint x="2770" y="2331" as="targetPoint" />
          </mxGeometry>
        </mxCell>
        <mxCell id="qX7h59sWBMEjEFQJi3sr-221" value="" style="strokeWidth=1;shadow=0;dashed=0;align=center;html=1;shape=mxgraph.mockup.containers.browserWindow;rSize=0;strokeColor=#666666;strokeColor2=#008cff;strokeColor3=#c4c4c4;mainText=,;recursiveResize=0;" parent="1" vertex="1">
          <mxGeometry x="2760" y="2190" width="1220" height="990" as="geometry" />
        </mxCell>
        <mxCell id="qX7h59sWBMEjEFQJi3sr-222" value="Order" style="strokeWidth=1;shadow=0;dashed=0;align=center;html=1;shape=mxgraph.mockup.containers.anchor;fontSize=17;fontColor=#666666;align=left;whiteSpace=wrap;" parent="qX7h59sWBMEjEFQJi3sr-221" vertex="1">
          <mxGeometry x="60" y="12" width="110" height="26" as="geometry" />
        </mxCell>
        <mxCell id="qX7h59sWBMEjEFQJi3sr-223" value="https://www.draw.io" style="strokeWidth=1;shadow=0;dashed=0;align=center;html=1;shape=mxgraph.mockup.containers.anchor;rSize=0;fontSize=17;fontColor=#666666;align=left;" parent="qX7h59sWBMEjEFQJi3sr-221" vertex="1">
          <mxGeometry x="130" y="60" width="250" height="26" as="geometry" />
        </mxCell>
        <mxCell id="qX7h59sWBMEjEFQJi3sr-288" value="Thank you for your order.&lt;div&gt;Your orders estimated arrival time is: 11:40&amp;nbsp;&lt;/div&gt;" style="text;strokeColor=none;fillColor=none;html=1;fontSize=24;fontStyle=1;verticalAlign=middle;align=center;" parent="qX7h59sWBMEjEFQJi3sr-221" vertex="1">
          <mxGeometry x="360" y="467.5" width="500" height="55" as="geometry" />
        </mxCell>
        <mxCell id="qX7h59sWBMEjEFQJi3sr-319" value="" style="rounded=0;whiteSpace=wrap;html=1;" parent="qX7h59sWBMEjEFQJi3sr-221" vertex="1">
          <mxGeometry y="110" width="1220" height="60" as="geometry" />
        </mxCell>
        <mxCell id="qX7h59sWBMEjEFQJi3sr-320" value="" style="ellipse;whiteSpace=wrap;html=1;aspect=fixed;" parent="qX7h59sWBMEjEFQJi3sr-221" vertex="1">
          <mxGeometry x="10" y="120" width="40" height="40" as="geometry" />
        </mxCell>
        <mxCell id="qX7h59sWBMEjEFQJi3sr-321" value="" style="rounded=1;whiteSpace=wrap;html=1;" parent="qX7h59sWBMEjEFQJi3sr-221" vertex="1">
          <mxGeometry x="70" y="125" width="60" height="30" as="geometry" />
        </mxCell>
        <mxCell id="qX7h59sWBMEjEFQJi3sr-322" value="" style="rounded=1;whiteSpace=wrap;html=1;" parent="qX7h59sWBMEjEFQJi3sr-221" vertex="1">
          <mxGeometry x="150" y="125" width="60" height="30" as="geometry" />
        </mxCell>
        <mxCell id="qX7h59sWBMEjEFQJi3sr-323" value="" style="rounded=1;whiteSpace=wrap;html=1;" parent="qX7h59sWBMEjEFQJi3sr-221" vertex="1">
          <mxGeometry x="230" y="125" width="60" height="30" as="geometry" />
        </mxCell>
        <mxCell id="qX7h59sWBMEjEFQJi3sr-324" value="" style="sketch=0;pointerEvents=1;shadow=0;dashed=0;html=1;strokeColor=none;fillColor=#505050;labelPosition=center;verticalLabelPosition=bottom;verticalAlign=top;outlineConnect=0;align=center;shape=mxgraph.office.concepts.marketplace_shopping_bag;" parent="qX7h59sWBMEjEFQJi3sr-221" vertex="1">
          <mxGeometry x="1171" y="125" width="30" height="30" as="geometry" />
        </mxCell>
        <mxCell id="qX7h59sWBMEjEFQJi3sr-289" value="" style="endArrow=classic;html=1;rounded=0;strokeWidth=2;strokeColor=#00BE00;" parent="1" source="qX7h59sWBMEjEFQJi3sr-154" target="qX7h59sWBMEjEFQJi3sr-221" edge="1">
          <mxGeometry width="50" height="50" relative="1" as="geometry">
            <mxPoint x="2978" y="1882" as="sourcePoint" />
            <mxPoint x="3223" y="1110" as="targetPoint" />
          </mxGeometry>
        </mxCell>
        <mxCell id="qX7h59sWBMEjEFQJi3sr-290" value="HOME" style="text;strokeColor=none;fillColor=none;html=1;fontSize=30;fontStyle=1;verticalAlign=middle;align=center;" parent="1" vertex="1">
          <mxGeometry x="590" y="55" width="120" height="55" as="geometry" />
        </mxCell>
        <mxCell id="qX7h59sWBMEjEFQJi3sr-291" value="MENU" style="text;strokeColor=none;fillColor=none;html=1;fontSize=30;fontStyle=1;verticalAlign=middle;align=center;" parent="1" vertex="1">
          <mxGeometry x="1945" y="55" width="110" height="55" as="geometry" />
        </mxCell>
        <mxCell id="qX7h59sWBMEjEFQJi3sr-292" value="ORDER" style="text;strokeColor=none;fillColor=none;html=1;fontSize=30;fontStyle=1;verticalAlign=middle;align=center;" parent="1" vertex="1">
          <mxGeometry x="3310" y="55" width="120" height="55" as="geometry" />
        </mxCell>
        <mxCell id="qX7h59sWBMEjEFQJi3sr-293" value="ABOUT" style="text;strokeColor=none;fillColor=none;html=1;fontSize=30;fontStyle=1;verticalAlign=middle;align=center;" parent="1" vertex="1">
          <mxGeometry x="4960" y="50" width="120" height="55" as="geometry" />
        </mxCell>
        <mxCell id="Y0lsKzphogrTrDtlBaw0-92" value="" style="strokeWidth=1;shadow=0;dashed=0;align=center;html=1;shape=mxgraph.mockup.containers.browserWindow;rSize=0;strokeColor=#666666;strokeColor2=#008cff;strokeColor3=#c4c4c4;mainText=,;recursiveResize=0;fontSize=13;" vertex="1" parent="1">
          <mxGeometry x="1390" y="1275" width="1220" height="990" as="geometry" />
        </mxCell>
        <mxCell id="Y0lsKzphogrTrDtlBaw0-93" value="Menu" style="strokeWidth=1;shadow=0;dashed=0;align=center;html=1;shape=mxgraph.mockup.containers.anchor;fontSize=17;fontColor=#666666;align=left;whiteSpace=wrap;" vertex="1" parent="Y0lsKzphogrTrDtlBaw0-92">
          <mxGeometry x="60" y="12" width="110" height="26" as="geometry" />
        </mxCell>
        <mxCell id="Y0lsKzphogrTrDtlBaw0-94" value="https://www.draw.io" style="strokeWidth=1;shadow=0;dashed=0;align=center;html=1;shape=mxgraph.mockup.containers.anchor;rSize=0;fontSize=17;fontColor=#666666;align=left;" vertex="1" parent="Y0lsKzphogrTrDtlBaw0-92">
          <mxGeometry x="130" y="60" width="250" height="26" as="geometry" />
        </mxCell>
        <mxCell id="Y0lsKzphogrTrDtlBaw0-95" value="" style="rounded=0;whiteSpace=wrap;html=1;" vertex="1" parent="Y0lsKzphogrTrDtlBaw0-92">
          <mxGeometry y="110" width="1220" height="60" as="geometry" />
        </mxCell>
        <mxCell id="Y0lsKzphogrTrDtlBaw0-96" value="" style="ellipse;whiteSpace=wrap;html=1;aspect=fixed;" vertex="1" parent="Y0lsKzphogrTrDtlBaw0-92">
          <mxGeometry x="10" y="120" width="40" height="40" as="geometry" />
        </mxCell>
        <mxCell id="Y0lsKzphogrTrDtlBaw0-97" value="" style="rounded=1;whiteSpace=wrap;html=1;" vertex="1" parent="Y0lsKzphogrTrDtlBaw0-92">
          <mxGeometry x="70" y="125" width="60" height="30" as="geometry" />
        </mxCell>
        <mxCell id="Y0lsKzphogrTrDtlBaw0-98" value="" style="rounded=1;whiteSpace=wrap;html=1;" vertex="1" parent="Y0lsKzphogrTrDtlBaw0-92">
          <mxGeometry x="150" y="125" width="60" height="30" as="geometry" />
        </mxCell>
        <mxCell id="Y0lsKzphogrTrDtlBaw0-99" value="" style="rounded=1;whiteSpace=wrap;html=1;" vertex="1" parent="Y0lsKzphogrTrDtlBaw0-92">
          <mxGeometry x="230" y="125" width="60" height="30" as="geometry" />
        </mxCell>
        <mxCell id="Y0lsKzphogrTrDtlBaw0-100" value="" style="sketch=0;pointerEvents=1;shadow=0;dashed=0;html=1;strokeColor=none;fillColor=#505050;labelPosition=center;verticalLabelPosition=bottom;verticalAlign=top;outlineConnect=0;align=center;shape=mxgraph.office.concepts.marketplace_shopping_bag;" vertex="1" parent="Y0lsKzphogrTrDtlBaw0-92">
          <mxGeometry x="1171" y="125" width="30" height="30" as="geometry" />
        </mxCell>
        <mxCell id="Y0lsKzphogrTrDtlBaw0-101" value="" style="sketch=0;outlineConnect=0;fontColor=#232F3E;gradientColor=none;fillColor=#ED7100;strokeColor=none;dashed=0;verticalLabelPosition=bottom;verticalAlign=top;align=center;html=1;fontSize=12;fontStyle=0;aspect=fixed;pointerEvents=1;shape=mxgraph.aws4.container_registry_image;" vertex="1" parent="Y0lsKzphogrTrDtlBaw0-92">
          <mxGeometry x="210" y="310" width="48" height="48" as="geometry" />
        </mxCell>
        <mxCell id="Y0lsKzphogrTrDtlBaw0-102" value="Product Title" style="text;html=1;align=center;verticalAlign=middle;whiteSpace=wrap;rounded=0;fontSize=18;" vertex="1" parent="Y0lsKzphogrTrDtlBaw0-92">
          <mxGeometry x="271" y="310" width="139" height="30" as="geometry" />
        </mxCell>
        <mxCell id="Y0lsKzphogrTrDtlBaw0-103" value="Subtract" style="labelPosition=center;verticalLabelPosition=middle;align=center;html=1;shape=mxgraph.basic.button;dx=10;whiteSpace=wrap;" vertex="1" parent="Y0lsKzphogrTrDtlBaw0-92">
          <mxGeometry x="820" y="314" width="70" height="40" as="geometry" />
        </mxCell>
        <mxCell id="Y0lsKzphogrTrDtlBaw0-104" value="Add" style="labelPosition=center;verticalLabelPosition=middle;align=center;html=1;shape=mxgraph.basic.button;dx=10;whiteSpace=wrap;" vertex="1" parent="Y0lsKzphogrTrDtlBaw0-92">
          <mxGeometry x="930" y="314" width="50" height="40" as="geometry" />
        </mxCell>
        <mxCell id="Y0lsKzphogrTrDtlBaw0-105" value="3" style="rounded=0;whiteSpace=wrap;html=1;" vertex="1" parent="Y0lsKzphogrTrDtlBaw0-92">
          <mxGeometry x="901" y="310" width="20" height="20" as="geometry" />
        </mxCell>
        <mxCell id="Y0lsKzphogrTrDtlBaw0-106" value="Product description" style="text;html=1;align=center;verticalAlign=middle;whiteSpace=wrap;rounded=0;fontSize=14;" vertex="1" parent="Y0lsKzphogrTrDtlBaw0-92">
          <mxGeometry x="300" y="328" width="139" height="30" as="geometry" />
        </mxCell>
        <mxCell id="Y0lsKzphogrTrDtlBaw0-107" value="Add to cart" style="rounded=0;whiteSpace=wrap;html=1;fontSize=14;" vertex="1" parent="Y0lsKzphogrTrDtlBaw0-92">
          <mxGeometry x="1010" y="315" width="80" height="38" as="geometry" />
        </mxCell>
        <mxCell id="Y0lsKzphogrTrDtlBaw0-108" value="&lt;h1 style=&quot;margin-top: 0px;&quot;&gt;Category&lt;/h1&gt;" style="text;html=1;whiteSpace=wrap;overflow=hidden;rounded=0;" vertex="1" parent="Y0lsKzphogrTrDtlBaw0-92">
          <mxGeometry x="170" y="250" width="120" height="40" as="geometry" />
        </mxCell>
        <mxCell id="Y0lsKzphogrTrDtlBaw0-109" value="" style="sketch=0;outlineConnect=0;fontColor=#232F3E;gradientColor=none;fillColor=#ED7100;strokeColor=none;dashed=0;verticalLabelPosition=bottom;verticalAlign=top;align=center;html=1;fontSize=12;fontStyle=0;aspect=fixed;pointerEvents=1;shape=mxgraph.aws4.container_registry_image;" vertex="1" parent="Y0lsKzphogrTrDtlBaw0-92">
          <mxGeometry x="210" y="380" width="48" height="48" as="geometry" />
        </mxCell>
        <mxCell id="Y0lsKzphogrTrDtlBaw0-110" value="Product Title" style="text;html=1;align=center;verticalAlign=middle;whiteSpace=wrap;rounded=0;fontSize=18;" vertex="1" parent="Y0lsKzphogrTrDtlBaw0-92">
          <mxGeometry x="271" y="380" width="139" height="30" as="geometry" />
        </mxCell>
        <mxCell id="Y0lsKzphogrTrDtlBaw0-111" value="Subtract" style="labelPosition=center;verticalLabelPosition=middle;align=center;html=1;shape=mxgraph.basic.button;dx=10;whiteSpace=wrap;" vertex="1" parent="Y0lsKzphogrTrDtlBaw0-92">
          <mxGeometry x="820" y="384" width="70" height="40" as="geometry" />
        </mxCell>
        <mxCell id="Y0lsKzphogrTrDtlBaw0-112" value="Add" style="labelPosition=center;verticalLabelPosition=middle;align=center;html=1;shape=mxgraph.basic.button;dx=10;whiteSpace=wrap;" vertex="1" parent="Y0lsKzphogrTrDtlBaw0-92">
          <mxGeometry x="930" y="384" width="50" height="40" as="geometry" />
        </mxCell>
        <mxCell id="Y0lsKzphogrTrDtlBaw0-113" value="3" style="rounded=0;whiteSpace=wrap;html=1;" vertex="1" parent="Y0lsKzphogrTrDtlBaw0-92">
          <mxGeometry x="900" y="394" width="20" height="20" as="geometry" />
        </mxCell>
        <mxCell id="Y0lsKzphogrTrDtlBaw0-114" value="Product description" style="text;html=1;align=center;verticalAlign=middle;whiteSpace=wrap;rounded=0;fontSize=14;" vertex="1" parent="Y0lsKzphogrTrDtlBaw0-92">
          <mxGeometry x="300" y="398" width="139" height="30" as="geometry" />
        </mxCell>
        <mxCell id="Y0lsKzphogrTrDtlBaw0-115" value="Add to cart" style="rounded=0;whiteSpace=wrap;html=1;fontSize=14;" vertex="1" parent="Y0lsKzphogrTrDtlBaw0-92">
          <mxGeometry x="1010" y="385" width="80" height="38" as="geometry" />
        </mxCell>
        <mxCell id="Y0lsKzphogrTrDtlBaw0-116" value="" style="sketch=0;outlineConnect=0;fontColor=#232F3E;gradientColor=none;fillColor=#ED7100;strokeColor=none;dashed=0;verticalLabelPosition=bottom;verticalAlign=top;align=center;html=1;fontSize=12;fontStyle=0;aspect=fixed;pointerEvents=1;shape=mxgraph.aws4.container_registry_image;" vertex="1" parent="Y0lsKzphogrTrDtlBaw0-92">
          <mxGeometry x="210" y="451" width="48" height="48" as="geometry" />
        </mxCell>
        <mxCell id="Y0lsKzphogrTrDtlBaw0-117" value="Product Title" style="text;html=1;align=center;verticalAlign=middle;whiteSpace=wrap;rounded=0;fontSize=18;" vertex="1" parent="Y0lsKzphogrTrDtlBaw0-92">
          <mxGeometry x="271" y="451" width="139" height="30" as="geometry" />
        </mxCell>
        <mxCell id="Y0lsKzphogrTrDtlBaw0-118" value="Subtract" style="labelPosition=center;verticalLabelPosition=middle;align=center;html=1;shape=mxgraph.basic.button;dx=10;whiteSpace=wrap;" vertex="1" parent="Y0lsKzphogrTrDtlBaw0-92">
          <mxGeometry x="820" y="455" width="70" height="40" as="geometry" />
        </mxCell>
        <mxCell id="Y0lsKzphogrTrDtlBaw0-119" value="Add" style="labelPosition=center;verticalLabelPosition=middle;align=center;html=1;shape=mxgraph.basic.button;dx=10;whiteSpace=wrap;" vertex="1" parent="Y0lsKzphogrTrDtlBaw0-92">
          <mxGeometry x="930" y="455" width="50" height="40" as="geometry" />
        </mxCell>
        <mxCell id="Y0lsKzphogrTrDtlBaw0-120" value="3" style="rounded=0;whiteSpace=wrap;html=1;" vertex="1" parent="Y0lsKzphogrTrDtlBaw0-92">
          <mxGeometry x="900" y="465" width="20" height="20" as="geometry" />
        </mxCell>
        <mxCell id="Y0lsKzphogrTrDtlBaw0-121" value="Product description" style="text;html=1;align=center;verticalAlign=middle;whiteSpace=wrap;rounded=0;fontSize=14;" vertex="1" parent="Y0lsKzphogrTrDtlBaw0-92">
          <mxGeometry x="300" y="469" width="139" height="30" as="geometry" />
        </mxCell>
        <mxCell id="Y0lsKzphogrTrDtlBaw0-122" value="Add to cart" style="rounded=0;whiteSpace=wrap;html=1;fontSize=14;" vertex="1" parent="Y0lsKzphogrTrDtlBaw0-92">
          <mxGeometry x="1010" y="456" width="80" height="38" as="geometry" />
        </mxCell>
        <mxCell id="Y0lsKzphogrTrDtlBaw0-123" value="" style="sketch=0;outlineConnect=0;fontColor=#232F3E;gradientColor=none;fillColor=#ED7100;strokeColor=none;dashed=0;verticalLabelPosition=bottom;verticalAlign=top;align=center;html=1;fontSize=12;fontStyle=0;aspect=fixed;pointerEvents=1;shape=mxgraph.aws4.container_registry_image;" vertex="1" parent="Y0lsKzphogrTrDtlBaw0-92">
          <mxGeometry x="210" y="520" width="48" height="48" as="geometry" />
        </mxCell>
        <mxCell id="Y0lsKzphogrTrDtlBaw0-124" value="Product Title" style="text;html=1;align=center;verticalAlign=middle;whiteSpace=wrap;rounded=0;fontSize=18;" vertex="1" parent="Y0lsKzphogrTrDtlBaw0-92">
          <mxGeometry x="271" y="520" width="139" height="30" as="geometry" />
        </mxCell>
        <mxCell id="Y0lsKzphogrTrDtlBaw0-125" value="Subtract" style="labelPosition=center;verticalLabelPosition=middle;align=center;html=1;shape=mxgraph.basic.button;dx=10;whiteSpace=wrap;" vertex="1" parent="Y0lsKzphogrTrDtlBaw0-92">
          <mxGeometry x="820" y="524" width="70" height="40" as="geometry" />
        </mxCell>
        <mxCell id="Y0lsKzphogrTrDtlBaw0-126" value="Add" style="labelPosition=center;verticalLabelPosition=middle;align=center;html=1;shape=mxgraph.basic.button;dx=10;whiteSpace=wrap;" vertex="1" parent="Y0lsKzphogrTrDtlBaw0-92">
          <mxGeometry x="930" y="524" width="50" height="40" as="geometry" />
        </mxCell>
        <mxCell id="Y0lsKzphogrTrDtlBaw0-127" value="3" style="rounded=0;whiteSpace=wrap;html=1;" vertex="1" parent="Y0lsKzphogrTrDtlBaw0-92">
          <mxGeometry x="900" y="534" width="20" height="20" as="geometry" />
        </mxCell>
        <mxCell id="Y0lsKzphogrTrDtlBaw0-128" value="Product description" style="text;html=1;align=center;verticalAlign=middle;whiteSpace=wrap;rounded=0;fontSize=14;" vertex="1" parent="Y0lsKzphogrTrDtlBaw0-92">
          <mxGeometry x="300" y="538" width="139" height="30" as="geometry" />
        </mxCell>
        <mxCell id="Y0lsKzphogrTrDtlBaw0-129" value="Add to cart" style="rounded=0;whiteSpace=wrap;html=1;fontSize=14;" vertex="1" parent="Y0lsKzphogrTrDtlBaw0-92">
          <mxGeometry x="1010" y="525" width="80" height="38" as="geometry" />
        </mxCell>
        <mxCell id="Y0lsKzphogrTrDtlBaw0-130" value="" style="sketch=0;outlineConnect=0;fontColor=#232F3E;gradientColor=none;fillColor=#ED7100;strokeColor=none;dashed=0;verticalLabelPosition=bottom;verticalAlign=top;align=center;html=1;fontSize=12;fontStyle=0;aspect=fixed;pointerEvents=1;shape=mxgraph.aws4.container_registry_image;" vertex="1" parent="Y0lsKzphogrTrDtlBaw0-92">
          <mxGeometry x="210" y="650" width="48" height="48" as="geometry" />
        </mxCell>
        <mxCell id="Y0lsKzphogrTrDtlBaw0-131" value="Product Title" style="text;html=1;align=center;verticalAlign=middle;whiteSpace=wrap;rounded=0;fontSize=18;" vertex="1" parent="Y0lsKzphogrTrDtlBaw0-92">
          <mxGeometry x="271" y="650" width="139" height="30" as="geometry" />
        </mxCell>
        <mxCell id="Y0lsKzphogrTrDtlBaw0-132" value="Subtract" style="labelPosition=center;verticalLabelPosition=middle;align=center;html=1;shape=mxgraph.basic.button;dx=10;whiteSpace=wrap;" vertex="1" parent="Y0lsKzphogrTrDtlBaw0-92">
          <mxGeometry x="820" y="654" width="70" height="40" as="geometry" />
        </mxCell>
        <mxCell id="Y0lsKzphogrTrDtlBaw0-133" value="Add" style="labelPosition=center;verticalLabelPosition=middle;align=center;html=1;shape=mxgraph.basic.button;dx=10;whiteSpace=wrap;" vertex="1" parent="Y0lsKzphogrTrDtlBaw0-92">
          <mxGeometry x="930" y="654" width="50" height="40" as="geometry" />
        </mxCell>
        <mxCell id="Y0lsKzphogrTrDtlBaw0-134" value="3" style="rounded=0;whiteSpace=wrap;html=1;" vertex="1" parent="Y0lsKzphogrTrDtlBaw0-92">
          <mxGeometry x="900" y="664" width="20" height="20" as="geometry" />
        </mxCell>
        <mxCell id="Y0lsKzphogrTrDtlBaw0-135" value="Product description" style="text;html=1;align=center;verticalAlign=middle;whiteSpace=wrap;rounded=0;fontSize=14;" vertex="1" parent="Y0lsKzphogrTrDtlBaw0-92">
          <mxGeometry x="300" y="668" width="139" height="30" as="geometry" />
        </mxCell>
        <mxCell id="Y0lsKzphogrTrDtlBaw0-136" value="Add to cart" style="rounded=0;whiteSpace=wrap;html=1;fontSize=14;" vertex="1" parent="Y0lsKzphogrTrDtlBaw0-92">
          <mxGeometry x="1010" y="655" width="80" height="38" as="geometry" />
        </mxCell>
        <mxCell id="Y0lsKzphogrTrDtlBaw0-137" value="&lt;h1 style=&quot;margin-top: 0px;&quot;&gt;Category&lt;/h1&gt;" style="text;html=1;whiteSpace=wrap;overflow=hidden;rounded=0;" vertex="1" parent="Y0lsKzphogrTrDtlBaw0-92">
          <mxGeometry x="170" y="590" width="120" height="40" as="geometry" />
        </mxCell>
        <mxCell id="Y0lsKzphogrTrDtlBaw0-138" value="" style="sketch=0;outlineConnect=0;fontColor=#232F3E;gradientColor=none;fillColor=#ED7100;strokeColor=none;dashed=0;verticalLabelPosition=bottom;verticalAlign=top;align=center;html=1;fontSize=12;fontStyle=0;aspect=fixed;pointerEvents=1;shape=mxgraph.aws4.container_registry_image;" vertex="1" parent="Y0lsKzphogrTrDtlBaw0-92">
          <mxGeometry x="210" y="720" width="48" height="48" as="geometry" />
        </mxCell>
        <mxCell id="Y0lsKzphogrTrDtlBaw0-139" value="Product Title" style="text;html=1;align=center;verticalAlign=middle;whiteSpace=wrap;rounded=0;fontSize=18;" vertex="1" parent="Y0lsKzphogrTrDtlBaw0-92">
          <mxGeometry x="271" y="720" width="139" height="30" as="geometry" />
        </mxCell>
        <mxCell id="Y0lsKzphogrTrDtlBaw0-140" value="Subtract" style="labelPosition=center;verticalLabelPosition=middle;align=center;html=1;shape=mxgraph.basic.button;dx=10;whiteSpace=wrap;" vertex="1" parent="Y0lsKzphogrTrDtlBaw0-92">
          <mxGeometry x="820" y="724" width="70" height="40" as="geometry" />
        </mxCell>
        <mxCell id="Y0lsKzphogrTrDtlBaw0-141" value="Add" style="labelPosition=center;verticalLabelPosition=middle;align=center;html=1;shape=mxgraph.basic.button;dx=10;whiteSpace=wrap;" vertex="1" parent="Y0lsKzphogrTrDtlBaw0-92">
          <mxGeometry x="930" y="724" width="50" height="40" as="geometry" />
        </mxCell>
        <mxCell id="Y0lsKzphogrTrDtlBaw0-142" value="3" style="rounded=0;whiteSpace=wrap;html=1;" vertex="1" parent="Y0lsKzphogrTrDtlBaw0-92">
          <mxGeometry x="900" y="734" width="20" height="20" as="geometry" />
        </mxCell>
        <mxCell id="Y0lsKzphogrTrDtlBaw0-143" value="Product description" style="text;html=1;align=center;verticalAlign=middle;whiteSpace=wrap;rounded=0;fontSize=14;" vertex="1" parent="Y0lsKzphogrTrDtlBaw0-92">
          <mxGeometry x="300" y="738" width="139" height="30" as="geometry" />
        </mxCell>
        <mxCell id="Y0lsKzphogrTrDtlBaw0-144" value="Add to cart" style="rounded=0;whiteSpace=wrap;html=1;fontSize=14;" vertex="1" parent="Y0lsKzphogrTrDtlBaw0-92">
          <mxGeometry x="1010" y="725" width="80" height="38" as="geometry" />
        </mxCell>
        <mxCell id="Y0lsKzphogrTrDtlBaw0-145" value="" style="sketch=0;outlineConnect=0;fontColor=#232F3E;gradientColor=none;fillColor=#ED7100;strokeColor=none;dashed=0;verticalLabelPosition=bottom;verticalAlign=top;align=center;html=1;fontSize=12;fontStyle=0;aspect=fixed;pointerEvents=1;shape=mxgraph.aws4.container_registry_image;" vertex="1" parent="Y0lsKzphogrTrDtlBaw0-92">
          <mxGeometry x="210" y="791" width="48" height="48" as="geometry" />
        </mxCell>
        <mxCell id="Y0lsKzphogrTrDtlBaw0-146" value="Product Title" style="text;html=1;align=center;verticalAlign=middle;whiteSpace=wrap;rounded=0;fontSize=18;" vertex="1" parent="Y0lsKzphogrTrDtlBaw0-92">
          <mxGeometry x="271" y="791" width="139" height="30" as="geometry" />
        </mxCell>
        <mxCell id="Y0lsKzphogrTrDtlBaw0-147" value="Subtract" style="labelPosition=center;verticalLabelPosition=middle;align=center;html=1;shape=mxgraph.basic.button;dx=10;whiteSpace=wrap;" vertex="1" parent="Y0lsKzphogrTrDtlBaw0-92">
          <mxGeometry x="820" y="795" width="70" height="40" as="geometry" />
        </mxCell>
        <mxCell id="Y0lsKzphogrTrDtlBaw0-148" value="Add" style="labelPosition=center;verticalLabelPosition=middle;align=center;html=1;shape=mxgraph.basic.button;dx=10;whiteSpace=wrap;" vertex="1" parent="Y0lsKzphogrTrDtlBaw0-92">
          <mxGeometry x="930" y="795" width="50" height="40" as="geometry" />
        </mxCell>
        <mxCell id="Y0lsKzphogrTrDtlBaw0-149" value="3" style="rounded=0;whiteSpace=wrap;html=1;" vertex="1" parent="Y0lsKzphogrTrDtlBaw0-92">
          <mxGeometry x="900" y="805" width="20" height="20" as="geometry" />
        </mxCell>
        <mxCell id="Y0lsKzphogrTrDtlBaw0-150" value="Product description" style="text;html=1;align=center;verticalAlign=middle;whiteSpace=wrap;rounded=0;fontSize=14;" vertex="1" parent="Y0lsKzphogrTrDtlBaw0-92">
          <mxGeometry x="300" y="809" width="139" height="30" as="geometry" />
        </mxCell>
        <mxCell id="Y0lsKzphogrTrDtlBaw0-151" value="Add to cart" style="rounded=0;whiteSpace=wrap;html=1;fontSize=14;" vertex="1" parent="Y0lsKzphogrTrDtlBaw0-92">
          <mxGeometry x="1010" y="796" width="80" height="38" as="geometry" />
        </mxCell>
        <mxCell id="Y0lsKzphogrTrDtlBaw0-153" value="" style="rounded=0;whiteSpace=wrap;html=1;gradientColor=none;opacity=90;" vertex="1" parent="Y0lsKzphogrTrDtlBaw0-92">
          <mxGeometry y="170" width="1220" height="820" as="geometry" />
        </mxCell>
        <mxCell id="Y0lsKzphogrTrDtlBaw0-154" value="" style="rounded=0;whiteSpace=wrap;html=1;" vertex="1" parent="Y0lsKzphogrTrDtlBaw0-92">
          <mxGeometry x="820" y="170" width="381" height="270" as="geometry" />
        </mxCell>
        <mxCell id="Y0lsKzphogrTrDtlBaw0-155" value="" style="sketch=0;outlineConnect=0;fontColor=#232F3E;gradientColor=none;fillColor=#ED7100;strokeColor=none;dashed=0;verticalLabelPosition=bottom;verticalAlign=top;align=center;html=1;fontSize=12;fontStyle=0;aspect=fixed;pointerEvents=1;shape=mxgraph.aws4.container_registry_image;" vertex="1" parent="Y0lsKzphogrTrDtlBaw0-92">
          <mxGeometry x="845" y="195" width="48" height="48" as="geometry" />
        </mxCell>
        <mxCell id="Y0lsKzphogrTrDtlBaw0-156" value="Product" style="text;html=1;align=center;verticalAlign=middle;whiteSpace=wrap;rounded=0;" vertex="1" parent="Y0lsKzphogrTrDtlBaw0-92">
          <mxGeometry x="906" y="204" width="60" height="30" as="geometry" />
        </mxCell>
        <mxCell id="Y0lsKzphogrTrDtlBaw0-159" value="3" style="rounded=0;whiteSpace=wrap;html=1;" vertex="1" parent="Y0lsKzphogrTrDtlBaw0-92">
          <mxGeometry x="1150" y="206" width="20" height="20" as="geometry" />
        </mxCell>
        <mxCell id="Y0lsKzphogrTrDtlBaw0-161" value="" style="sketch=0;outlineConnect=0;fontColor=#232F3E;gradientColor=none;fillColor=#ED7100;strokeColor=none;dashed=0;verticalLabelPosition=bottom;verticalAlign=top;align=center;html=1;fontSize=12;fontStyle=0;aspect=fixed;pointerEvents=1;shape=mxgraph.aws4.container_registry_image;" vertex="1" parent="Y0lsKzphogrTrDtlBaw0-92">
          <mxGeometry x="845" y="259" width="48" height="48" as="geometry" />
        </mxCell>
        <mxCell id="Y0lsKzphogrTrDtlBaw0-162" value="Product" style="text;html=1;align=center;verticalAlign=middle;whiteSpace=wrap;rounded=0;" vertex="1" parent="Y0lsKzphogrTrDtlBaw0-92">
          <mxGeometry x="906" y="268" width="60" height="30" as="geometry" />
        </mxCell>
        <mxCell id="Y0lsKzphogrTrDtlBaw0-165" value="3" style="rounded=0;whiteSpace=wrap;html=1;" vertex="1" parent="Y0lsKzphogrTrDtlBaw0-92">
          <mxGeometry x="1150" y="270" width="20" height="20" as="geometry" />
        </mxCell>
        <mxCell id="Y0lsKzphogrTrDtlBaw0-167" value="" style="sketch=0;outlineConnect=0;fontColor=#232F3E;gradientColor=none;fillColor=#ED7100;strokeColor=none;dashed=0;verticalLabelPosition=bottom;verticalAlign=top;align=center;html=1;fontSize=12;fontStyle=0;aspect=fixed;pointerEvents=1;shape=mxgraph.aws4.container_registry_image;" vertex="1" parent="Y0lsKzphogrTrDtlBaw0-92">
          <mxGeometry x="846" y="315" width="48" height="48" as="geometry" />
        </mxCell>
        <mxCell id="Y0lsKzphogrTrDtlBaw0-168" value="Product" style="text;html=1;align=center;verticalAlign=middle;whiteSpace=wrap;rounded=0;" vertex="1" parent="Y0lsKzphogrTrDtlBaw0-92">
          <mxGeometry x="907" y="324" width="60" height="30" as="geometry" />
        </mxCell>
        <mxCell id="Y0lsKzphogrTrDtlBaw0-171" value="3" style="rounded=0;whiteSpace=wrap;html=1;" vertex="1" parent="Y0lsKzphogrTrDtlBaw0-92">
          <mxGeometry x="1151" y="326" width="20" height="20" as="geometry" />
        </mxCell>
        <mxCell id="Y0lsKzphogrTrDtlBaw0-173" value="Go To Order" style="rounded=0;whiteSpace=wrap;html=1;" vertex="1" parent="Y0lsKzphogrTrDtlBaw0-92">
          <mxGeometry x="844" y="410" width="76" height="22" as="geometry" />
        </mxCell>
        <mxCell id="Y0lsKzphogrTrDtlBaw0-174" value="Total: €00.00" style="text;html=1;align=center;verticalAlign=middle;whiteSpace=wrap;rounded=0;" vertex="1" parent="Y0lsKzphogrTrDtlBaw0-92">
          <mxGeometry x="844" y="368" width="84" height="30" as="geometry" />
        </mxCell>
        <mxCell id="Y0lsKzphogrTrDtlBaw0-152" value="SHOPPING BAG" style="text;strokeColor=none;fillColor=none;html=1;fontSize=30;fontStyle=1;verticalAlign=middle;align=center;" vertex="1" parent="1">
          <mxGeometry x="1857.5" y="1220" width="285" height="55" as="geometry" />
        </mxCell>
      </root>
    </mxGraphModel>
  </diagram>
</mxfile>
